<svg class="animated" id="freepik_stories-image-upload" xmlns="http://www.w3.org/2000/svg" viewBox="0 0 750 500" version="1.1" xmlns:xlink="http://www.w3.org/1999/xlink" xmlns:svgjs="http://svgjs.com/svgjs"><style>svg#freepik_stories-image-upload:not(.animated) .animable {opacity: 0;}svg#freepik_stories-image-upload.animated #freepik--background-complete--inject-196 {animation: 6s Infinite  linear shake;animation-delay: 0s;}svg#freepik_stories-image-upload.animated #freepik--Character--inject-196 {animation: 3s Infinite  linear shake;animation-delay: 0s;}svg#freepik_stories-image-upload.animated #freepik--image-upload--inject-196 {animation: 3s Infinite  linear heartbeat;animation-delay: 0s;}            @keyframes shake {                10%, 90% {                    transform: translate3d(-1px, 0, 0);                  }                  20%, 80% {                    transform: translate3d(2px, 0, 0);                  }                  30%, 50%, 70% {                    transform: translate3d(-4px, 0, 0);                  }                  40%, 60% {                    transform: translate3d(4px, 0, 0);                  }            }                    @keyframes heartbeat {                0% {                    transform: scale(1);                }                10% {                    transform: scale(1.1);                }                30% {                    transform: scale(1);                }                40% {                    transform: scale(1);                }                50% {                    transform: scale(1.1);                }                60% {                    transform: scale(1);                }                100% {                    transform: scale(1);                }            }        </style><g id="freepik--background-complete--inject-196" style="transform-origin: 372.705px 249.715px 0px;" class="animable"><rect x="609.92" y="57.32" width="100.34" height="137.13" style="fill: rgb(224, 224, 224); transform-origin: 660.09px 125.885px 0px;" id="elxlo74zyzxal" class="animable"></rect><rect x="613.41" y="61.07" width="93.31" height="129.78" style="fill: rgb(250, 250, 250); transform-origin: 660.065px 125.96px 0px;" id="elfc3qc9s10d7" class="animable"></rect><rect x="644.85" y="91.45" width="30.44" height="74.34" style="fill: rgb(224, 224, 224); transform-origin: 660.07px 128.62px 0px;" id="elm1fwx40hsfk" class="animable"></rect><path d="M107.81,440.8c23.56-11.44,32.75-38.17,35.84-63,.52-4.15,1.66-8.43.28-12.36s-5.58-7.13-9.55-6c-3.29.95-5.19,4.3-7.37,7a24.47,24.47,0,0,1-11.15,7.7c-2.84.94-6.23,1.26-8.59-.58-3.25-2.53-2.88-7.52-2.21-11.62q1.91-11.44,3.8-22.91c.68-4.1,1.36-8.29.7-12.38s-2.9-8.17-6.63-9.88-8.91-.23-10.38,3.65c-.61,1.62-.54,3.41-.93,5.09s-1.47,3.44-3.17,3.66-3.17-1.2-4.2-2.6c-3.58-4.82-5.6-10.61-7.44-16.34s-3.59-11.59-6.71-16.72S62.23,284,56.41,282.68,43.75,284,41.34,289.57s0,12,3,17.22A92.27,92.27,0,0,0,60.48,328c1.15,1.13,2.39,2.34,2.64,3.94.46,2.88-2.57,5.18-5.41,5.65-3.22.53-6.49-.31-9.75-.44s-7,.72-8.64,3.55c-2.35,3.93.46,8.88,3.45,12.31a79.38,79.38,0,0,0,21.09,17.1c2.84,1.58,5.86,3.06,8,5.57s3,6.43,1.05,9.08-5.85,3-8.92,1.89-5.63-3.25-8.46-4.87c-5.3-3-12.64-3.79-17,.5-2.88,2.83-3.8,7.26-3.21,11.27s2.51,7.68,4.61,11.13c7.35,12,17.56,22.41,29.92,29s24.28,9.77,38,7.09" style="fill: rgb(235, 235, 235); transform-origin: 89.8689px 362.033px 0px;" id="eltn5d4tj7wok" class="animable"></path><path d="M104.47,442.11c.67-9.93,1.11-4.78-.57-17.82a370,370,0,0,0-8.3-41.9l-2.73-10.88C92,368,91.06,364.41,90,361a184.73,184.73,0,0,0-7.41-19.21c-2.65-6-5.38-11.59-8-16.8S69.46,315,67,310.71a147.91,147.91,0,0,0-13.22-19.32c-1.73-2.16-3.13-3.78-4.09-4.87l-1.11-1.23a3.34,3.34,0,0,0-.39-.4,2.81,2.81,0,0,0,.33.45l1,1.28c.92,1.12,2.28,2.78,4,4.95a156.46,156.46,0,0,1,13,19.41c2.45,4.29,4.93,9.1,7.51,14.31s5.28,10.82,7.9,16.8a186.2,186.2,0,0,1,7.33,19.15c1.09,3.39,2,6.89,2.88,10.47s1.81,7.2,2.73,10.87a379.88,379.88,0,0,1,8.34,41.8c1.71,13,1.33,7.8.73,17.7" style="fill: rgb(224, 224, 224); transform-origin: 76.6285px 363.5px 0px;" id="elc7eixx97b0h" class="animable"></path><path d="M89.76,360.94a8.78,8.78,0,0,0,.68-1.68c.39-1.1.91-2.71,1.53-4.71,1.23-4,2.74-9.56,4.38-15.71s3.23-11.69,4.51-15.65c.64-2,1.18-3.59,1.56-4.69a8.55,8.55,0,0,0,.51-1.74,7.89,7.89,0,0,0-.79,1.64c-.47,1.07-1.08,2.64-1.78,4.61-1.43,3.93-3.1,9.47-4.75,15.63L91.45,354.4c-.52,1.89-1,3.49-1.3,4.77A8.22,8.22,0,0,0,89.76,360.94Z" style="fill: rgb(224, 224, 224); transform-origin: 96.345px 338.85px 0px;" id="el9b91q0a4pql" class="animable"></path><path d="M38.58,342.69a11.5,11.5,0,0,0,2.06.59c1.33.33,3.27.81,5.64,1.47,4.75,1.29,11.24,3.3,18.31,5.84s13.37,5.12,17.87,7.12c2.26,1,4.07,1.82,5.32,2.4a10.87,10.87,0,0,0,2,.83,12.46,12.46,0,0,0-1.85-1.1c-1.21-.66-3-1.58-5.23-2.63-4.45-2.13-10.74-4.8-17.83-7.35a188.91,188.91,0,0,0-18.44-5.64c-2.39-.6-4.35-1-5.71-1.24A11.25,11.25,0,0,0,38.58,342.69Z" style="fill: rgb(224, 224, 224); transform-origin: 64.18px 351.815px 0px;" id="el5l55qu9g1mj" class="animable"></path><path d="M103.4,423.22s.19-.19.47-.59.72-1.06,1.2-1.76c1-1.54,2.49-3.81,4.24-6.63,3.51-5.63,8.11-13.57,13.06-22.4s9.48-16.81,12.87-22.51l4-6.74,1.09-1.85c.24-.42.36-.65.33-.67a3,3,0,0,0-.46.59c-.33.48-.72,1.06-1.21,1.76-1,1.54-2.48,3.8-4.23,6.62-3.51,5.64-8.11,13.58-13.07,22.42s-9.47,16.8-12.86,22.5l-4,6.74-1.09,1.85A2.89,2.89,0,0,0,103.4,423.22Z" style="fill: rgb(224, 224, 224); transform-origin: 122.032px 391.645px 0px;" id="el9u50tpm9t8d" class="animable"></path><path d="M36.91,389.47a2.73,2.73,0,0,0,.65.4l1.92,1,7.12,3.63c6,3.06,14.26,7.39,23.38,12.18s17.41,9.06,23.49,12c3,1.47,5.51,2.63,7.23,3.4l2,.88a3.42,3.42,0,0,0,.71.26s-.21-.16-.65-.4l-1.92-1-7.12-3.62c-6-3.07-14.26-7.4-23.38-12.19S52.92,397,46.84,394c-3-1.47-5.5-2.64-7.23-3.41l-2-.87A2.79,2.79,0,0,0,36.91,389.47Z" style="fill: rgb(224, 224, 224); transform-origin: 70.16px 406.345px 0px;" id="el0qw2wcw25l2o" class="animable"></path><rect x="51.12" y="142" width="79.24" height="77.85" style="fill: rgb(224, 224, 224); transform-origin: 90.74px 180.925px 0px;" id="elugjnwykg7cp" class="animable"></rect><rect x="53.88" y="144.13" width="73.68" height="73.68" style="fill: rgb(250, 250, 250); transform-origin: 90.72px 180.97px 0px;" id="elvenn8bluff" class="animable"></rect><rect x="78.7" y="168.96" width="24.04" height="24.04" style="fill: rgb(224, 224, 224); transform-origin: 90.72px 180.98px 0px;" id="elgpty8dct358" class="animable"></rect></g><g id="freepik--Floor--inject-196" style="transform-origin: 375px 441.88px 0px;" class="animable"><path d="M686.66,441.88c0,.14-139.55.26-311.65.26S63.34,442,63.34,441.88s139.52-.26,311.67-.26S686.66,441.73,686.66,441.88Z" style="fill: rgb(38, 50, 56); transform-origin: 375px 441.88px 0px;" id="el6bt9dwmny7u" class="animable"></path></g><g id="freepik--Device--inject-196" style="transform-origin: 375px 263.415px 0px;" class="animable"><path d="M577.31,84.72H172.69a12.63,12.63,0,0,0-12.63,12.63V383.13a12.63,12.63,0,0,0,12.63,12.63H328s9.88,30.55-20.74,46.35h145.2s-34.57-11.85-25.68-46.35H577.31a12.63,12.63,0,0,0,12.63-12.63V97.35A12.63,12.63,0,0,0,577.31,84.72Z" style="fill: rgb(69, 90, 100); transform-origin: 375px 263.415px 0px;" id="eld42pwuywhh" class="animable"></path><path d="M380.4,365.71c5.51,7.86-3.11,16.48-11,11a2.67,2.67,0,0,1-.67-.67c-5.49-7.87,3.11-16.47,11-11A2.89,2.89,0,0,1,380.4,365.71Z" style="fill: rgb(38, 50, 56); transform-origin: 374.569px 370.876px 0px;" id="el92ezoytexke" class="animable"></path><rect x="169.19" y="101.85" width="410.77" height="243.65" rx="3.27" style="fill: rgb(250, 250, 250); transform-origin: 374.575px 223.675px 0px;" id="eljfxjmlxg6f" class="animable"></rect><path d="M576.69,346H172.47a3.78,3.78,0,0,1-3.78-3.77V105.12a3.78,3.78,0,0,1,3.78-3.77H576.69a3.77,3.77,0,0,1,3.77,3.77V342.23A3.77,3.77,0,0,1,576.69,346ZM172.47,102.35a2.78,2.78,0,0,0-2.78,2.77V342.23a2.78,2.78,0,0,0,2.78,2.77H576.69a2.77,2.77,0,0,0,2.77-2.77V105.12a2.77,2.77,0,0,0-2.77-2.77Z" style="fill: rgb(255, 255, 255); transform-origin: 374.575px 223.675px 0px;" id="elcf4fajv5ja4" class="animable"></path><path d="M202.88,111.26A3.28,3.28,0,1,1,199.6,108,3.28,3.28,0,0,1,202.88,111.26Z" style="fill: rgb(69, 90, 100); transform-origin: 199.6px 111.28px 0px;" id="elemxmmq9ydc" class="animable"></path><path d="M183,111.26a3.28,3.28,0,1,1-3.28-3.28A3.28,3.28,0,0,1,183,111.26Z" style="fill: rgb(69, 90, 100); transform-origin: 179.72px 111.26px 0px;" id="elgmft69iyvr7" class="animable"></path><path d="M192.54,111.26a3.28,3.28,0,1,1-3.28-3.28A3.28,3.28,0,0,1,192.54,111.26Z" style="fill: rgb(69, 90, 100); transform-origin: 189.26px 111.26px 0px;" id="el1l4tskeqdru" class="animable"></path><path d="M580.26,121.11c0,.14-92.1.26-205.67.26s-205.69-.12-205.69-.26,92.07-.26,205.69-.26S580.26,121,580.26,121.11Z" style="fill: rgb(38, 50, 56); transform-origin: 374.58px 121.11px 0px;" id="elf6iw8u7otwe" class="animable"></path><g id="elujqd1nj7ml"><rect x="483.56" y="143.06" width="74.21" height="59.33" style="fill: rgb(245, 245, 245); transform-origin: 520.665px 172.725px 0px; transform: rotate(-0.11deg);" class="animable" id="elc56np45ayhw"></rect></g><g id="elb44wuxrdamu"><rect x="486.12" y="146.8" width="69" height="51.86" style="fill: rgb(235, 235, 235); transform-origin: 520.62px 172.73px 0px; transform: rotate(-0.11deg);" class="animable" id="elzyyu6d38tto"></rect></g><polygon points="486.17 198.72 510.21 166.44 525.18 186.59 535.28 175.78 555.17 198.6 486.17 198.72" style="fill: rgb(224, 224, 224); transform-origin: 520.67px 182.58px 0px;" id="eljc2kmw365w" class="animable"></polygon><path d="M531.47,162.46A5.44,5.44,0,1,1,526,157,5.44,5.44,0,0,1,531.47,162.46Z" style="fill: rgb(224, 224, 224); transform-origin: 526.03px 162.44px 0px;" id="el2f9trv6pcuk" class="animable"></path><g id="elazt47ix6s3g"><rect x="483.56" y="270.09" width="74.21" height="59.33" style="fill: rgb(245, 245, 245); transform-origin: 520.665px 299.755px 0px; transform: rotate(-0.11deg);" class="animable" id="elenltj10194c"></rect></g><g id="el8hrbbq6gm46"><rect x="486.12" y="273.83" width="69" height="51.86" style="fill: rgb(235, 235, 235); transform-origin: 520.62px 299.76px 0px; transform: rotate(-0.11deg);" class="animable" id="el694qq99l2kt"></rect></g><polygon points="486.17 325.75 510.21 293.47 525.18 313.61 535.28 302.81 555.17 325.62 486.17 325.75" style="fill: rgb(224, 224, 224); transform-origin: 520.67px 309.61px 0px;" id="el7bmpr23pjo" class="animable"></polygon><path d="M531.47,289.48a5.44,5.44,0,1,1-5.44-5.42A5.43,5.43,0,0,1,531.47,289.48Z" style="fill: rgb(224, 224, 224); transform-origin: 526.03px 289.5px 0px;" id="elx3bi81ctgjo" class="animable"></path><g id="elqx1tqyz75ud"><rect x="186.04" y="143.06" width="74.21" height="59.33" style="fill: rgb(245, 245, 245); transform-origin: 223.145px 172.725px 0px; transform: rotate(-0.11deg);" class="animable" id="eldj6q6yi70ch"></rect></g><g id="el4qzcmcg9ri"><rect x="188.6" y="146.8" width="69" height="51.86" style="fill: rgb(235, 235, 235); transform-origin: 223.1px 172.73px 0px; transform: rotate(-0.11deg);" class="animable" id="elgunig2qzr4"></rect></g><polygon points="188.64 198.72 212.68 166.44 227.65 186.59 237.75 175.78 257.64 198.6 188.64 198.72" style="fill: rgb(224, 224, 224); transform-origin: 223.14px 182.58px 0px;" id="eltrgz2fbr96p" class="animable"></polygon><path d="M233.94,162.46A5.43,5.43,0,1,1,228.5,157,5.43,5.43,0,0,1,233.94,162.46Z" style="fill: rgb(224, 224, 224); transform-origin: 228.51px 162.43px 0px;" id="el7ybfk6apum3" class="animable"></path><g id="elqqff4b7jare"><rect x="186.04" y="207.01" width="74.21" height="59.33" style="fill: rgb(245, 245, 245); transform-origin: 223.145px 236.675px 0px; transform: rotate(-0.11deg);" class="animable" id="elco5riiti6ro"></rect></g><g id="elsq959wyihe"><rect x="188.6" y="210.74" width="69" height="51.86" style="fill: rgb(235, 235, 235); transform-origin: 223.1px 236.67px 0px; transform: rotate(-0.11deg);" class="animable" id="eli7uxz02mt1"></rect></g><polygon points="188.64 262.67 212.68 230.38 227.65 250.53 237.75 239.73 257.64 262.54 188.64 262.67" style="fill: rgb(224, 224, 224); transform-origin: 223.14px 246.525px 0px;" id="elmkr5ncu98ak" class="animable"></polygon><path d="M233.94,226.4A5.43,5.43,0,1,1,228.5,221,5.43,5.43,0,0,1,233.94,226.4Z" style="fill: rgb(224, 224, 224); transform-origin: 228.51px 226.43px 0px;" id="el6xfumrbf4j" class="animable"></path><g id="elowwln58jf7n"><rect x="186.04" y="271.52" width="74.21" height="59.33" style="fill: rgb(245, 245, 245); transform-origin: 223.145px 301.185px 0px; transform: rotate(-0.11deg);" class="animable" id="elhuy4jribyl5"></rect></g><g id="eljgg2hxbimuo"><rect x="188.6" y="275.26" width="69" height="51.86" style="fill: rgb(235, 235, 235); transform-origin: 223.1px 301.19px 0px; transform: rotate(-0.11deg);" class="animable" id="elf2wvg6smsek"></rect></g><polygon points="188.64 327.18 212.68 294.9 227.65 315.04 237.75 304.24 257.64 327.06 188.64 327.18" style="fill: rgb(224, 224, 224); transform-origin: 223.14px 311.04px 0px;" id="eluqtdlqfyjc9" class="animable"></polygon><path d="M233.94,290.91a5.43,5.43,0,1,1-5.44-5.42A5.44,5.44,0,0,1,233.94,290.91Z" style="fill: rgb(224, 224, 224); transform-origin: 228.51px 290.92px 0px;" id="elffwzrdry756" class="animable"></path></g><g id="freepik--Character--inject-196" style="transform-origin: 507.29px 296.467px 0px;" class="animable"><path d="M568.85,201.33A14.66,14.66,0,0,0,556,205.78c-5.23,5.25-27,24.42-27,24.42l-31.58-6.32L493,238s37.3,11.6,40,10.6,23-14.69,23-14.69Z" style="fill: #407BFF; transform-origin: 530.925px 224.914px 0px;" id="el0sbpfes9arvr" class="animable"></path><g id="elrcwr5tcuxog"><rect x="392.61" y="162.43" width="153.43" height="122.66" style="fill: rgb(235, 235, 235); transform-origin: 469.325px 223.76px 0px; transform: rotate(-7.73deg);" class="animable" id="el9946u6u6g5"></rect></g><path d="M537.09,152.66l-.73.11-2.12.31L526,154.23l-31.1,4.29-109.8,15,.23-.3c4.92,36.18,10.57,77.65,16.54,121.53h0l-.33-.25,152-20.6-.21.28L541.5,186c-1.41-10.62-2.52-18.95-3.28-24.63-.37-2.84-.66-5-.85-6.5s-.28-2.24-.28-2.24.12.73.32,2.18.51,3.63.91,6.44c.78,5.67,1.93,14,3.4,24.56,2.91,21.25,7.09,51.65,12.12,88.33l0,.25-.25,0-152,20.7-.3,0,0-.3h0c-5.95-43.89-11.57-85.36-16.48-121.54l0-.26.26,0,110-14.8,31.06-4.15,8.2-1.08,2.1-.27Z" style="fill: rgb(38, 50, 56); transform-origin: 469.325px 223.86px 0px;" id="elmjf2ef4s28a" class="animable"></path><g id="elf2rzyaav12i"><rect x="397.9" y="170.16" width="142.65" height="107.22" style="fill: #407BFF; transform-origin: 469.225px 223.77px 0px; transform: rotate(-7.48089deg);" class="animable" id="el1m5b7ysc7yx"></rect></g><polygon points="405.77 286.49 446.17 213.75 482.36 250.91 500.1 226 547.12 267.29 405.77 286.49" style="fill: #407BFF; transform-origin: 476.445px 250.12px 0px;" id="elt6a20q345tb" class="animable"></polygon><path d="M488.63,199.74A11.23,11.23,0,1,1,476,190.12,11.23,11.23,0,0,1,488.63,199.74Z" style="fill: #407BFF; transform-origin: 477.502px 201.248px 0px;" id="elpz5i63k7ap" class="animable"></path><g id="elxhuvexmlmp9"><g style="opacity: 0.2; transform-origin: 476.445px 250.12px 0px;" class="animable" id="el4nujhdspfeh"><polygon points="405.77 286.49 446.17 213.75 482.36 250.91 500.1 226 547.12 267.29 405.77 286.49" id="elckmnzklhwi7" style="transform-origin: 476.445px 250.12px 0px;" class="animable"></polygon></g></g><g id="elgsu3h5f58va"><g style="opacity: 0.2; transform-origin: 477.502px 201.248px 0px;" class="animable" id="el7scmkelcfoc"><path d="M488.63,199.74A11.23,11.23,0,1,1,476,190.12,11.23,11.23,0,0,1,488.63,199.74Z" id="el7za77ekv28a" style="transform-origin: 477.502px 201.248px 0px;" class="animable"></path></g></g><path d="M604.74,217.09c1.44-9.89-3.15-13-10.36-16-9-3.73-26.16-1.87-32,3.35L555.78,224c-2.77,3.23-2.33,8.16-.73,12.11s4.18,7.49,5.37,11.57c2.31,7.91.69,14.9.14,23.11-.12,1.9-1.58,5.4-.18,6.68s3.23,1.22,5,1.15a99.75,99.75,0,0,0,39.73-10.05c-4.71-9.5-9.9-20.5-6.87-27.78A100.46,100.46,0,0,0,604.74,217.09Z" style="fill: #407BFF; transform-origin: 579.442px 238.891px 0px;" id="eltsw6azyulxp" class="animable"></path><path d="M542.46,237.32,538,252.5s23.29,8.47,35.9,8.32c11.82-.15,15.2-1.49,19.36-11s8.88-20.51,9.87-26.82a34.2,34.2,0,0,0,1.5-6.44c1.73-12.95-14-16.36-16.33-3.5l-1.88,6.89s-4.29,9.7-4.49,10.24c-1.9,5-5.19,13.09-7.57,14S542.46,237.32,542.46,237.32Z" style="fill: #407BFF; transform-origin: 571.381px 232.891px 0px;" id="elz4lyfmu853h" class="animable"></path><path d="M599.33,238a1.87,1.87,0,0,1-.12.36l-.41,1c-.36.91-.92,2.24-1.73,3.92a53.15,53.15,0,0,1-3.27,6,36,36,0,0,1-5.69,7,23.07,23.07,0,0,1-2,1.65,26.14,26.14,0,0,1-2.29,1.44l-1.27.58-.65.28-.69.19-1.4.39-1.47.18a49.83,49.83,0,0,1-12.53-.89,208.79,208.79,0,0,1-27.91-7.3l-.23-.08.07-.24.56-1.92,3.89-13.26.07-.24.24.06c8.52,2.28,16.58,4.27,23.91,5.61,1.84.32,3.63.6,5.37.74a12.78,12.78,0,0,0,2.55,0,2.5,2.5,0,0,0,.57-.14.83.83,0,0,0,.41-.32,7.62,7.62,0,0,0,.66-1c1.64-2.83,2.9-5.62,4.09-8.12,2.34-5,4.13-9.09,5.38-11.88.61-1.37,1.09-2.45,1.43-3.2.15-.35.28-.62.37-.83s.14-.28.15-.27,0,.1-.1.29-.2.49-.34.84L585.62,222c-1.19,2.82-2.94,6.9-5.24,11.95-1.17,2.52-2.4,5.3-4,8.18a8.92,8.92,0,0,1-.7,1.07,1.35,1.35,0,0,1-.57.44,2.65,2.65,0,0,1-.66.16,12.26,12.26,0,0,1-2.64,0c-1.77-.13-3.57-.41-5.41-.72-7.37-1.31-15.43-3.28-24-5.55l.31-.18-3.88,13.27-.56,1.92-.17-.32a211.4,211.4,0,0,0,27.82,7.32,49.62,49.62,0,0,0,12.41.93l1.43-.16,1.36-.37.67-.18.64-.28,1.24-.55a23.61,23.61,0,0,0,2.24-1.4,22.48,22.48,0,0,0,2-1.6,35.61,35.61,0,0,0,5.68-6.88,56.61,56.61,0,0,0,3.34-5.88c.84-1.66,1.42-3,1.82-3.88l.45-1A1.35,1.35,0,0,1,599.33,238Z" style="fill: rgb(38, 50, 56); transform-origin: 568.5px 239.388px 0px;" id="el15emsc2q1js" class="animable"></path><path d="M559.28,220.31a24.51,24.51,0,0,1-1.62,2.76,20,20,0,0,0-2.86,7,13.12,13.12,0,0,0,1.23,7.37,27.74,27.74,0,0,1,1.26,2.94,3.05,3.05,0,0,1-.48-.72,22.59,22.59,0,0,1-1.11-2.07,16.79,16.79,0,0,1-1.22-3.28,10.65,10.65,0,0,1-.2-4.32,18.54,18.54,0,0,1,3.07-7.12A17,17,0,0,1,559.28,220.31Z" style="fill: rgb(38, 50, 56); transform-origin: 556.714px 230.345px 0px;" id="eleckmxt292r7" class="animable"></path><g id="eljvwfzojmbeb"><g style="opacity: 0.2; transform-origin: 576.925px 258.705px 0px;" class="animable" id="elhpixdry4508"><path d="M561.34,259a6,6,0,0,0,2,4.61,11,11,0,0,0,4.54,2.41,19.85,19.85,0,0,0,15.7-2.13c4.64-2.83,7.8-8,9.08-13.25,0,0-2.93,3.69-4.86,5.61a14.74,14.74,0,0,1-9,4.29c-5.87.83-11.81-.36-17.61-1.55" id="elebqevywid0m" style="transform-origin: 576.925px 258.705px 0px;" class="animable"></path></g></g><path d="M559.53,206.11a12.7,12.7,0,0,1,1.62.78l4.09,2.14.37.2-.36.23c-.88.57-1.83,1.2-2.83,1.84s-1.8,1.16-2.63,1.68l-.38.25v-.44c0-1.95,0-3.62,0-4.8a8.06,8.06,0,0,1,.12-1.88,9.32,9.32,0,0,1,.19,1.88c.06,1.18.12,2.84.18,4.79l-.39-.2,2.63-1.71c1-.65,2-1.26,2.86-1.83v.42C561.73,207.64,559.44,206.24,559.53,206.11Z" style="fill: rgb(250, 250, 250); transform-origin: 562.504px 209.67px 0px;" id="elemd6ulsml2m" class="animable"></path><path d="M548.41,216a14.73,14.73,0,0,1,1.62.78l4.09,2.15.36.19-.35.23-2.83,1.85-2.63,1.68-.38.24v-.44c0-1.94,0-3.61,0-4.79a8.2,8.2,0,0,1,.12-1.89,9.1,9.1,0,0,1,.18,1.88c.07,1.18.13,2.85.19,4.79l-.39-.2,2.63-1.71,2.86-1.83v.43C550.61,217.54,548.32,216.15,548.41,216Z" style="fill: rgb(250, 250, 250); transform-origin: 551.379px 219.56px 0px;" id="el4vb949yox8e" class="animable"></path><path d="M578.16,219.39a11.37,11.37,0,0,1,.12-1.8c.13-1.29.29-2.84.47-4.59l0-.41.35.25,2.76,1.94,2.54,1.81.37.27-.41.17c-1.8.74-3.35,1.36-4.45,1.78a7.64,7.64,0,0,1-1.79.58,8.46,8.46,0,0,1,1.67-.87c1.07-.5,2.59-1.18,4.38-2l0,.44-2.57-1.81c-1-.69-1.89-1.36-2.76-2l.39-.17C578.76,216.78,578.31,219.42,578.16,219.39Z" style="fill: rgb(250, 250, 250); transform-origin: 581.445px 215.99px 0px;" id="elkkm9ng9shqe" class="animable"></path><path d="M558.52,231.08a12.16,12.16,0,0,1,1.14-1.39l3.05-3.47.28-.3.14.4c.35,1,.73,2.06,1.12,3.18l1,3,.14.43-.43-.11c-1.89-.44-3.51-.84-4.65-1.14a8,8,0,0,1-1.8-.56,9.36,9.36,0,0,1,1.86.26c1.17.22,2.8.55,4.7,1l-.28.33c-.33-.93-.68-1.92-1-3s-.76-2.2-1.1-3.21l.41.09C560.52,229.3,558.63,231.19,558.52,231.08Z" style="fill: rgb(250, 250, 250); transform-origin: 561.95px 229.425px 0px;" id="elz5z6ra3wyx" class="animable"></path><path d="M573.87,232.65a15.36,15.36,0,0,1,.12-1.8c.13-1.3.29-2.85.47-4.59l0-.41.35.24,2.77,1.94,2.53,1.82.37.26-.41.17c-1.79.74-3.34,1.36-4.45,1.78a8.58,8.58,0,0,1-1.79.59,8.19,8.19,0,0,1,1.67-.87c1.07-.5,2.6-1.18,4.38-1.95l0,.43-2.57-1.81-2.75-2,.39-.17C574.47,230,574,232.67,573.87,232.65Z" style="fill: rgb(250, 250, 250); transform-origin: 577.155px 229.25px 0px;" id="el23i8hcqwl3li" class="animable"></path><path d="M568.41,242a15.36,15.36,0,0,1,.12-1.8c.14-1.29.3-2.84.47-4.59l0-.41.34.25,2.77,1.93,2.54,1.82.37.27-.41.17c-1.8.74-3.35,1.35-4.46,1.77a7.72,7.72,0,0,1-1.79.59,8.86,8.86,0,0,1,1.67-.87c1.08-.5,2.6-1.18,4.38-1.95l0,.43-2.56-1.8-2.76-2,.39-.17C569,239.4,568.57,242,568.41,242Z" style="fill: rgb(250, 250, 250); transform-origin: 571.69px 238.6px 0px;" id="elultov5lsgyi" class="animable"></path><path d="M579.75,273.5a11.87,11.87,0,0,1,.11-1.8c.14-1.3.3-2.84.48-4.59l0-.41.35.24,2.76,1.94L586,270.7l.37.26-.41.17c-1.8.74-3.35,1.36-4.45,1.78a8.8,8.8,0,0,1-1.79.59,8.08,8.08,0,0,1,1.67-.87c1.07-.5,2.59-1.18,4.38-1.95l0,.43-2.57-1.8-2.76-2,.39-.16C580.34,270.89,579.9,273.53,579.75,273.5Z" style="fill: rgb(250, 250, 250); transform-origin: 583.045px 270.1px 0px;" id="elcs5l4gge8m7" class="animable"></path><path d="M589.6,211.29a13,13,0,0,1,.12-1.8c.13-1.3.29-2.85.47-4.59l0-.41.35.24,2.76,1.94,2.54,1.82.37.26-.41.17c-1.79.74-3.34,1.36-4.45,1.78a8.8,8.8,0,0,1-1.79.59,7.62,7.62,0,0,1,1.67-.87c1.07-.5,2.6-1.18,4.38-2l0,.44L593,207.09l-2.75-2,.39-.17C590.2,208.67,589.76,211.31,589.6,211.29Z" style="fill: rgb(250, 250, 250); transform-origin: 592.885px 207.89px 0px;" id="elzjgs7xcj52k" class="animable"></path><path d="M565,222.32a11.28,11.28,0,0,1,.12-1.8c.13-1.3.29-2.85.47-4.6l0-.41.35.25,2.76,1.94,2.54,1.82.37.26-.41.17c-1.8.74-3.35,1.36-4.45,1.78a8.8,8.8,0,0,1-1.79.59,7.87,7.87,0,0,1,1.67-.88c1.07-.5,2.59-1.17,4.38-1.95l0,.44-2.57-1.81-2.76-2,.39-.17C565.63,219.7,565.18,222.34,565,222.32Z" style="fill: rgb(250, 250, 250); transform-origin: 568.285px 218.915px 0px;" id="el4xqpo7yd79t" class="animable"></path><path d="M566.42,270.9a15.58,15.58,0,0,1,.12-1.8c.13-1.29.29-2.84.47-4.59l0-.41.35.25,2.77,1.94,2.53,1.81.37.27-.41.17c-1.79.74-3.34,1.35-4.45,1.77a7.29,7.29,0,0,1-1.79.59,8.86,8.86,0,0,1,1.67-.87c1.07-.5,2.6-1.18,4.38-1.95l0,.43-2.57-1.8-2.75-2,.39-.17C567,268.29,566.58,270.93,566.42,270.9Z" style="fill: rgb(250, 250, 250); transform-origin: 569.705px 267.5px 0px;" id="elytzcgn73ber" class="animable"></path><path d="M592.75,230.29a15.36,15.36,0,0,1,.12-1.8c.13-1.3.29-2.85.47-4.59l0-.42.34.25,2.77,1.94,2.54,1.82.36.26-.4.17c-1.8.74-3.35,1.36-4.46,1.78a8.58,8.58,0,0,1-1.79.59,7.87,7.87,0,0,1,1.67-.88c1.08-.49,2.6-1.17,4.38-1.95l0,.44-2.56-1.81-2.76-2,.39-.17C593.35,227.67,592.91,230.31,592.75,230.29Z" style="fill: rgb(250, 250, 250); transform-origin: 596.025px 226.885px 0px;" id="eliu56hm4xoe" class="animable"></path><path d="M581.35,252.93a11.28,11.28,0,0,1,.12-1.8c.13-1.3.29-2.85.47-4.59l0-.41.35.24,2.76,1.94,2.54,1.82.37.26-.41.17c-1.8.74-3.35,1.36-4.45,1.78a8.8,8.8,0,0,1-1.79.59,8.86,8.86,0,0,1,1.67-.87c1.07-.5,2.59-1.18,4.38-1.95l0,.43-2.57-1.8-2.76-2,.39-.17C582,250.32,581.5,253,581.35,252.93Z" style="fill: rgb(250, 250, 250); transform-origin: 584.635px 249.531px 0px;" id="elywr5xxwkoff" class="animable"></path><path d="M590.87,263.42a12,12,0,0,1,.11-1.81c.14-1.29.3-2.84.48-4.59l0-.41.35.25,2.76,1.94c.89.63,1.74,1.25,2.54,1.81l.37.27-.41.17c-1.8.74-3.35,1.36-4.45,1.78a8.8,8.8,0,0,1-1.79.59,7.24,7.24,0,0,1,1.67-.88c1.07-.5,2.59-1.18,4.38-2l0,.44-2.57-1.81-2.76-2,.39-.17C591.46,260.8,591,263.44,590.87,263.42Z" style="fill: rgb(250, 250, 250); transform-origin: 594.155px 260.015px 0px;" id="elb9j17y6m3sh" class="animable"></path><path d="M584.35,241.42a13,13,0,0,1,.12-1.8c.13-1.3.29-2.85.47-4.59l0-.41.35.24,2.76,1.94,2.54,1.82.37.26-.41.17c-1.79.74-3.34,1.36-4.45,1.78a8.8,8.8,0,0,1-1.79.59,7.62,7.62,0,0,1,1.67-.87c1.07-.5,2.6-1.18,4.38-2l0,.43-2.57-1.81-2.75-2,.39-.17C585,238.81,584.51,241.44,584.35,241.42Z" style="fill: rgb(250, 250, 250); transform-origin: 587.635px 238.02px 0px;" id="elswj1e6bf9c" class="animable"></path><path d="M553.85,254.9a11.28,11.28,0,0,1,.12-1.8c.13-1.3.29-2.84.47-4.59l0-.41.35.24,2.76,1.94,2.54,1.82.37.26-.41.17c-1.8.74-3.35,1.36-4.45,1.78a8.8,8.8,0,0,1-1.79.59,8.86,8.86,0,0,1,1.67-.87c1.07-.5,2.59-1.18,4.38-1.95l0,.43-2.57-1.8-2.76-2,.39-.16C554.45,252.29,554,254.93,553.85,254.9Z" style="fill: rgb(250, 250, 250); transform-origin: 557.135px 251.5px 0px;" id="elqktgw9ywky" class="animable"></path><path d="M568.88,251.73a15.36,15.36,0,0,1,.12-1.8c.14-1.29.3-2.84.47-4.59l0-.41.35.25,2.76,1.94,2.54,1.81.37.27-.41.17c-1.8.74-3.35,1.35-4.46,1.77a7.72,7.72,0,0,1-1.79.59,8.86,8.86,0,0,1,1.67-.87c1.08-.5,2.6-1.18,4.39-2l-.05.43-2.56-1.8-2.76-2,.39-.17C569.48,249.12,569,251.76,568.88,251.73Z" style="fill: rgb(250, 250, 250); transform-origin: 572.16px 248.33px 0px;" id="elb9ytbac9yyf" class="animable"></path><path d="M542.72,248.15a15.36,15.36,0,0,1,.12-1.8c.13-1.29.29-2.84.47-4.59l0-.41.35.25,2.76,1.93,2.54,1.82.37.27-.41.17c-1.79.74-3.34,1.35-4.45,1.77a7.89,7.89,0,0,1-1.79.59,8.86,8.86,0,0,1,1.67-.87c1.07-.5,2.6-1.18,4.38-1.95l0,.43-2.57-1.8-2.75-2,.39-.17C543.32,245.54,542.88,248.18,542.72,248.15Z" style="fill: rgb(250, 250, 250); transform-origin: 546.005px 244.75px 0px;" id="el0dh92obavwma" class="animable"></path><path d="M601.69,219.13a10.71,10.71,0,0,1-1.74-.45l-4.43-1.31-.39-.12.3-.29,2.42-2.36,2.25-2.16.33-.31.09.43c.4,1.91.72,3.54.93,4.71a8.29,8.29,0,0,1,.24,1.86,8.61,8.61,0,0,1-.54-1.8c-.3-1.14-.68-2.77-1.11-4.66l.42.12c-.71.68-1.46,1.42-2.25,2.19l-2.45,2.34-.09-.41C599.24,218.06,601.75,219,601.69,219.13Z" style="fill: rgb(250, 250, 250); transform-origin: 598.411px 215.63px 0px;" id="el70pcppx3s6f" class="animable"></path><path d="M506.69,429.76l4.39-8.49,16,8.12-6.29,12.49-1-.44c-4.53-2-22.88-10.47-25.37-12.86C491.58,425.91,506.69,429.76,506.69,429.76Z" style="fill: #407BFF; transform-origin: 510.572px 431.575px 0px;" id="elzdp2hsm8mu" class="animable"></path><g id="el6a8g9zqibmc"><g style="opacity: 0.5; transform-origin: 519.04px 438.98px 0px;" class="animable" id="elfzgai6p123"><path d="M515,438.81a6.19,6.19,0,0,1,3.76-2.37,6.09,6.09,0,0,1,4.32.74l-2.26,4.46Z" style="fill: rgb(255, 255, 255); transform-origin: 519.04px 438.98px 0px;" id="elnn72oy9vmlc" class="animable"></path></g></g><g id="ele8o04i54gel"><g style="opacity: 0.4; transform-origin: 507.417px 434.752px 0px;" class="animable" id="elhsq72ato99f"><path d="M499.19,428.12s-5.45-1.05-5.25,0,18.41,10.35,26.81,13.73l.15-.37-21.34-10.62S500.1,428.63,499.19,428.12Z" style="fill: rgb(255, 255, 255); transform-origin: 507.417px 434.752px 0px;" id="elcy2cscv8e4" class="animable"></path></g></g><path d="M521.16,441.63l-.29-.11-.81-.36-3-1.35c-2.49-1.15-5.92-2.8-9.66-4.69s-7.09-3.7-9.5-5l-2.84-1.59-.76-.45c-.18-.1-.27-.16-.26-.17l.28.13.78.42L498,430c2.43,1.29,5.79,3.06,9.53,5s7.15,3.56,9.63,4.76l2.93,1.41.8.39A1.41,1.41,0,0,1,521.16,441.63Z" style="fill: rgb(38, 50, 56); transform-origin: 507.6px 434.77px 0px;" id="el6zcncqml9df" class="animable"></path><path d="M499.44,431.14a8.09,8.09,0,0,0,.16-1.66,7.48,7.48,0,0,0-.43-1.61,2.32,2.32,0,0,1,.64,1.59A2.43,2.43,0,0,1,499.44,431.14Z" style="fill: rgb(38, 50, 56); transform-origin: 499.503px 429.505px 0px;" id="elhhx9eqfxdev" class="animable"></path><path d="M505.36,431.14c-.06,0-.15-.38-.19-.87a1.81,1.81,0,0,1,0-.88c.06,0,.15.38.19.86A1.85,1.85,0,0,1,505.36,431.14Z" style="fill: rgb(38, 50, 56); transform-origin: 505.265px 430.265px 0px;" id="elihorw0fyynj" class="animable"></path><path d="M507,431.12c-.06,0-.22-.28-.37-.67s-.23-.71-.17-.73.22.27.37.66A1.44,1.44,0,0,1,507,431.12Z" style="fill: rgb(38, 50, 56); transform-origin: 506.721px 430.42px 0px;" id="elore19mcqyun" class="animable"></path><path d="M508.58,430c0,.06-.42-.08-.89-.31a2.3,2.3,0,0,1-.79-.51c0-.06.43.08.89.31S508.61,430,508.58,430Z" style="fill: rgb(38, 50, 56); transform-origin: 507.741px 429.59px 0px;" id="eligy9z2c03q" class="animable"></path><path d="M509.4,429.1a1.75,1.75,0,0,1-1.07-.2,1.8,1.8,0,0,1-.89-.61,5.65,5.65,0,0,1,1,.41A6.74,6.74,0,0,1,509.4,429.1Z" style="fill: rgb(38, 50, 56); transform-origin: 508.42px 428.703px 0px;" id="elbvjq062jh8s" class="animable"></path><path d="M505.53,429.48a3.42,3.42,0,0,1-1-.53,7.67,7.67,0,0,1-1-.8,3.54,3.54,0,0,1-.49-.57.61.61,0,0,1-.09-.45.42.42,0,0,1,.36-.33,2.12,2.12,0,0,1,2.05,1.73,1.93,1.93,0,0,1,0,.85.67.67,0,0,1-.11.3,3.12,3.12,0,0,0,0-1.12,2.05,2.05,0,0,0-.59-1,1.81,1.81,0,0,0-1.26-.54c-.23,0-.26.26-.14.46a3.37,3.37,0,0,0,.46.54,7.82,7.82,0,0,0,.91.81C505.15,429.24,505.54,429.44,505.53,429.48Z" style="fill: rgb(38, 50, 56); transform-origin: 504.235px 428.24px 0px;" id="elo9r4dy0s71" class="animable"></path><path d="M505.23,429.39a1.11,1.11,0,0,1,.25-.77,2,2,0,0,1,.66-.61,1.17,1.17,0,0,1,1.12-.09.46.46,0,0,1,.07.64,1.38,1.38,0,0,1-.4.37,3.28,3.28,0,0,1-.8.37,1.8,1.8,0,0,1-.8.12s.3-.08.74-.26a4,4,0,0,0,.75-.4c.25-.15.54-.49.31-.66a1,1,0,0,0-.9.09,2,2,0,0,0-.63.52A4.82,4.82,0,0,0,505.23,429.39Z" style="fill: rgb(38, 50, 56); transform-origin: 506.328px 428.622px 0px;" id="ell5j4ikxxcj" class="animable"></path><path d="M523.05,437.09s-.43-.27-1.2-.55a5.69,5.69,0,0,0-3.11-.25,5.85,5.85,0,0,0-2.76,1.45c-.59.56-.85,1-.88,1a1,1,0,0,1,.16-.32,4.85,4.85,0,0,1,.61-.78,5.48,5.48,0,0,1,6-1.24,5.81,5.81,0,0,1,.87.47C523,437,523.06,437.08,523.05,437.09Z" style="fill: rgb(38, 50, 56); transform-origin: 519.076px 437.365px 0px;" id="elx00k0x1cc5p" class="animable"></path><path d="M524.77,429.61a29.86,29.86,0,0,1-1.52,3.35,29.36,29.36,0,0,1-1.73,3.25,33.36,33.36,0,0,1,1.53-3.35A32.74,32.74,0,0,1,524.77,429.61Z" style="fill: rgb(38, 50, 56); transform-origin: 523.145px 432.91px 0px;" id="eli6gn04mgf2" class="animable"></path><path d="M513.81,436.23a9.63,9.63,0,0,1-2.45-1,11,11,0,0,1-2.24-1.37c0-.06,1.05.54,2.34,1.17S513.83,436.17,513.81,436.23Z" style="fill: rgb(38, 50, 56); transform-origin: 511.465px 435.043px 0px;" id="el8o6cz9g33ed" class="animable"></path><path d="M516.94,437.82c0,.06-.2.17-.43.36s-.39.37-.44.34,0-.3.31-.51S516.93,437.76,516.94,437.82Z" style="fill: rgb(38, 50, 56); transform-origin: 516.497px 438.159px 0px;" id="elgvmyly1skf" class="animable"></path><path d="M518.86,437c0,.06-.16.17-.41.25s-.47.11-.49.05.17-.17.42-.25S518.85,436.89,518.86,437Z" style="fill: rgb(38, 50, 56); transform-origin: 518.409px 437.139px 0px;" id="el1n7n9vhwcz" class="animable"></path><path d="M520.89,437.14s-.25-.07-.52-.1-.51,0-.54-.06.23-.21.57-.16S520.93,437.09,520.89,437.14Z" style="fill: rgb(38, 50, 56); transform-origin: 520.361px 436.975px 0px;" id="elio7jks7787o" class="animable"></path><path d="M522.25,437.43c0,.06-.14.09-.29.08s-.29-.08-.28-.14.14-.09.3-.08S522.26,437.37,522.25,437.43Z" style="fill: rgb(38, 50, 56); transform-origin: 521.965px 437.4px 0px;" id="elu1gtc782ek" class="animable"></path><path d="M611.43,433.16l-3.8-8.77L624,417.17l5.7,12.76-1,.52c-4.41,2.24-22.57,11.1-26,11.52C598.9,442.44,611.43,433.16,611.43,433.16Z" style="fill: #407BFF; transform-origin: 615.841px 429.579px 0px;" id="eloh6ttu5h3yq" class="animable"></path><g id="el75g0zw23l1"><g style="opacity: 0.5; transform-origin: 626.544px 428.78px 0px;" class="animable" id="elb2i4r1kkdc"><path d="M623.71,432.43a6.22,6.22,0,0,1,.55-4.42,6.06,6.06,0,0,1,3.3-2.88l2,4.58Z" style="fill: rgb(255, 255, 255); transform-origin: 626.544px 428.78px 0px;" id="el1lot3zgblvd" class="animable"></path></g></g><g id="el9tfdr21ym3c"><g style="opacity: 0.4; transform-origin: 615.845px 435.817px 0px;" class="animable" id="elestdudh04er"><path d="M605.42,437.94s-4.26,3.56-3.3,4.09,19.66-7.73,27.59-12.1l-.19-.35-21.72,9.83S606.39,437.56,605.42,437.94Z" style="fill: rgb(255, 255, 255); transform-origin: 615.845px 435.817px 0px;" id="els6jctjii15" class="animable"></path></g></g><path d="M629.77,429.46l-.27.15-.78.41-2.92,1.44c-2.48,1.2-5.92,2.82-9.75,4.52s-7.35,3.16-9.9,4.18l-3,1.2-.83.31-.29.09a1.4,1.4,0,0,1,.27-.14l.82-.34,3-1.26c2.54-1.06,6-2.54,9.87-4.24s7.28-3.29,9.77-4.46l2.95-1.38.8-.37Z" style="fill: rgb(38, 50, 56); transform-origin: 615.9px 435.61px 0px;" id="eltu4siquffh" class="animable"></path><path d="M607.91,439.66a7.4,7.4,0,0,0-1.18-1.18,7.78,7.78,0,0,0-1.52-.69,2.48,2.48,0,0,1,1.64.51A2.38,2.38,0,0,1,607.91,439.66Z" style="fill: rgb(38, 50, 56); transform-origin: 606.56px 438.723px 0px;" id="el948zn82mhe" class="animable"></path><path d="M611.66,435.07c0,.05-.39-.13-.79-.4s-.71-.53-.68-.58.39.13.8.4S611.69,435,611.66,435.07Z" style="fill: rgb(38, 50, 56); transform-origin: 610.925px 434.58px 0px;" id="el9zv4qkit40h" class="animable"></path><path d="M612.68,433.78c0,.06-.36,0-.75-.13s-.7-.28-.68-.33.35,0,.75.13S612.69,433.73,612.68,433.78Z" style="fill: rgb(38, 50, 56); transform-origin: 611.965px 433.552px 0px;" id="elxz3u780zz" class="animable"></path><path d="M612.83,431.87c0,.05-.34.27-.81.48s-.87.35-.89.29.33-.27.8-.48S612.81,431.81,612.83,431.87Z" style="fill: rgb(38, 50, 56); transform-origin: 611.98px 432.255px 0px;" id="el8dpeejjgpbt" class="animable"></path><path d="M612.64,430.65s-.3.41-.83.7a1.76,1.76,0,0,1-1,.3,5.85,5.85,0,0,1,.94-.49C612.21,430.89,612.59,430.6,612.64,430.65Z" style="fill: rgb(38, 50, 56); transform-origin: 611.725px 431.147px 0px;" id="el1eui0pnp1xsh" class="animable"></path><path d="M610.47,433.89a3.37,3.37,0,0,1-1.05.46,7.06,7.06,0,0,1-1.23.24,3.16,3.16,0,0,1-.76,0,.61.61,0,0,1-.4-.21.44.44,0,0,1,0-.49,2.11,2.11,0,0,1,2.63-.49,2,2,0,0,1,.66.55.68.68,0,0,1,.15.27,3.12,3.12,0,0,0-.88-.68,2,2,0,0,0-1.15-.19,1.84,1.84,0,0,0-1.22.64c-.11.2,0,.37.28.39a3.28,3.28,0,0,0,.7,0,8.46,8.46,0,0,0,1.21-.2C610.06,434,610.46,433.86,610.47,433.89Z" style="fill: rgb(38, 50, 56); transform-origin: 608.713px 433.876px 0px;" id="elxhbmglomomi" class="animable"></path><path d="M610.22,434.06s-.28-.18-.44-.68a1.84,1.84,0,0,1,0-.89,1.17,1.17,0,0,1,.64-.93.46.46,0,0,1,.53.35,1.15,1.15,0,0,1,0,.55,3.52,3.52,0,0,1-.21.85,1.58,1.58,0,0,1-.42.69s.13-.28.27-.74a3.61,3.61,0,0,0,.16-.82c0-.29,0-.73-.31-.67s-.43.48-.5.76a1.83,1.83,0,0,0,0,.81A4.18,4.18,0,0,0,610.22,434.06Z" style="fill: rgb(38, 50, 56); transform-origin: 610.354px 432.806px 0px;" id="elhigbfdfly8u" class="animable"></path><path d="M627.46,425.12s-.49.17-1.19.58a5.76,5.76,0,0,0-2.16,2.26,5.63,5.63,0,0,0-.62,3.05c.06.82.24,1.3.2,1.31a1,1,0,0,1-.14-.33,4.53,4.53,0,0,1-.21-1,5.43,5.43,0,0,1,2.85-5.46,4.46,4.46,0,0,1,.91-.38A1.32,1.32,0,0,1,627.46,425.12Z" style="fill: rgb(38, 50, 56); transform-origin: 625.38px 428.719px 0px;" id="elkzdru6fj8ul" class="animable"></path><path d="M622.75,419.06a32.43,32.43,0,0,1,1.63,3.3,34.4,34.4,0,0,1,1.43,3.39,28.12,28.12,0,0,1-1.63-3.3A28.56,28.56,0,0,1,622.75,419.06Z" style="fill: rgb(38, 50, 56); transform-origin: 624.28px 422.405px 0px;" id="elqff7rfjqy2" class="animable"></path><path d="M621,431.74a9.74,9.74,0,0,1-2.29,1.29,9.51,9.51,0,0,1-2.48.87c0-.06,1.08-.47,2.39-1.06S620.91,431.69,621,431.74Z" style="fill: rgb(38, 50, 56); transform-origin: 618.615px 432.818px 0px;" id="elth7pn2awf79" class="animable"></path><path d="M624.15,430.32c.06,0,0,.26,0,.56s0,.53,0,.55-.2-.22-.19-.56S624.1,430.29,624.15,430.32Z" style="fill: rgb(38, 50, 56); transform-origin: 624.068px 430.874px 0px;" id="el8vidw5lth07" class="animable"></path><path d="M624.7,428.28s0,.24-.07.48-.22.43-.27.41,0-.24.07-.48S624.64,428.26,624.7,428.28Z" style="fill: rgb(38, 50, 56); transform-origin: 624.52px 428.725px 0px;" id="elrdj7wzzyrtf" class="animable"></path><path d="M626.12,426.82c0,.07-.2.16-.41.35s-.32.4-.37.38,0-.31.23-.54S626.12,426.77,626.12,426.82Z" style="fill: rgb(38, 50, 56); transform-origin: 625.721px 427.173px 0px;" id="els0zila6eq4" class="animable"></path><path d="M627.21,426s0,.16-.13.28-.23.17-.28.12,0-.16.13-.28S627.17,425.91,627.21,426Z" style="fill: rgb(38, 50, 56); transform-origin: 626.996px 426.191px 0px;" id="elf4hnme9fisu" class="animable"></path><path d="M628.15,422.62l-23,13.11L572.8,371c-4.8-17.31-9.43-78.24-9.43-78.24l26.63,2s4.1,43.75,10.54,66.29Z" style="fill: rgb(38, 50, 56); transform-origin: 595.76px 364.245px 0px;" id="el9cn7zig7gs5" class="animable"></path><path d="M603.24,266.14c.64,0,5.3,18-.38,28.91-.56,1.06-4.64,7-4.64,7-14.51,17.11-29.21,50.32-33.32,59-8.42,17.9-39.45,76.76-39.45,76.76l-19.93-11.41,29.14-74.94,25-73.53Z" style="fill: rgb(38, 50, 56); transform-origin: 555.583px 351.975px 0px;" id="el7goo9zdyjc" class="animable"></path><path d="M590.15,312.39a10.58,10.58,0,0,0-.84,1.47L587.15,318c-1.82,3.45-4.38,8.19-7.21,13.43s-5.35,10-7.09,13.51c-.87,1.75-1.56,3.17-2,4.16a11.62,11.62,0,0,0-.67,1.56,9.87,9.87,0,0,0,.85-1.47c.54-1,1.27-2.42,2.15-4.09,1.82-3.45,4.38-8.19,7.22-13.43s5.35-10,7.08-13.51c.88-1.75,1.57-3.17,2-4.16A11.62,11.62,0,0,0,590.15,312.39Z" style="fill: rgb(69, 90, 100); transform-origin: 580.165px 331.525px 0px;" id="eli3c6vd08ezk" class="animable"></path><path d="M535.13,248.51a94.56,94.56,0,0,1-10.5-1.44c-4.27-1-4.2-1.42-4-1.9.52-1.3,7.58,1.53,6.39,0s-9-2.44-8.41-3.77c.77-1.74,8.12,1.36,8.75,1.58s.95-.71.37-.88c-.85-.23-9.65-2.93-8.9-4.64.41-1,2,0,2,0s8.06,3.14,8.39,2.32-4.35-2.84-6-3.4-2-1.55-1.19-2.06c.55-.35,5.56,1.25,7.15,1.85s5.94,2.3,4.44-.3S532,230.75,532.4,230s1.56-.38,1.66.55a11.22,11.22,0,0,0,1,2.85,7.48,7.48,0,0,0,1.37,2c.49.51.94.94,1.35,1.32l3.57,3.36-2.48,8.74Z" style="fill: rgb(255, 190, 157); transform-origin: 529.964px 239.21px 0px;" id="elmnss2jon4db" class="animable"></path><path d="M579.91,153.64c-1.27-2-3.93-2.79-6.35-2.76a15.08,15.08,0,0,0-14.16,12c-.48,2.71-.2,5.56-1,8.17a22.77,22.77,0,0,1-2.88,5.22,13.78,13.78,0,0,0-2.42,5.4,5.41,5.41,0,0,0,2,5.3,6.63,6.63,0,0,0,5.86,11.19c1.45-.25,3-1,4.32-.28a7.24,7.24,0,0,1,1.61,1.52c2,2.05,5.34,2.38,8,1.35a14,14,0,0,0,6.34-5.62c.42-.63,1-1.37,1.72-1.3a2.46,2.46,0,0,1,1.14.64,6.74,6.74,0,0,0,9.22-9.76,7.79,7.79,0,0,0,5.06-5.07,11.32,11.32,0,0,0-.28-7.31c-1.26-3.47-3.76-6.31-6.21-9.06-2.24-2.53-2.9-6.42-5.14-8.94a7.2,7.2,0,0,0-4.18-2.78,8.22,8.22,0,0,0-4.8,1.07" style="fill: rgb(38, 50, 56); transform-origin: 575.924px 176.098px 0px;" id="elx3zh3893kup" class="animable"></path><path d="M574.88,154.84a12.53,12.53,0,0,1,12.53,12.66L587,201.75a8.06,8.06,0,0,1-8.53,7.69h0c-4.72-.1-8.56-3.75-8.57-8.16,0-4.63-.12-9.5-.12-9.5s-6-1-7.19-8.77c-.32-2-.34-9.13-.28-15.75a12.53,12.53,0,0,1,12.53-12.42Z" style="fill: rgb(255, 190, 157); transform-origin: 574.847px 182.147px 0px;" id="elge7usx20lii" class="animable"></path><path d="M564.13,172a1,1,0,0,0,1,1,1,1,0,0,0,1-.9,1,1,0,0,0-1-1A1,1,0,0,0,564.13,172Z" style="fill: rgb(38, 50, 56); transform-origin: 565.13px 172.05px 0px;" id="elxj9juwgll69" class="animable"></path><path d="M563.91,170.91c.12.13.88-.43,2-.43s1.86.54,2,.41-.07-.29-.41-.54a2.78,2.78,0,0,0-1.59-.49,2.62,2.62,0,0,0-1.55.5C564,170.61,563.85,170.85,563.91,170.91Z" style="fill: rgb(38, 50, 56); transform-origin: 565.926px 170.395px 0px;" id="elryhx7ih0rvg" class="animable"></path><path d="M574.87,172a1,1,0,0,0,1,1,.94.94,0,0,0,1-.9,1,1,0,0,0-1-1A1,1,0,0,0,574.87,172Z" style="fill: rgb(38, 50, 56); transform-origin: 575.87px 172.051px 0px;" id="el0q1g7gdfmtcj" class="animable"></path><path d="M574.46,171.11c.13.13.88-.43,2-.43s1.86.54,2,.41-.06-.29-.41-.54a2.74,2.74,0,0,0-1.58-.49,2.65,2.65,0,0,0-1.56.5C574.52,170.81,574.4,171.05,574.46,171.11Z" style="fill: rgb(38, 50, 56); transform-origin: 576.475px 170.595px 0px;" id="eleynegpoawdc" class="animable"></path><path d="M570.57,179.07a7.65,7.65,0,0,0-1.75-.31c-.27,0-.53-.09-.58-.27a1.41,1.41,0,0,1,.19-.82c.25-.66.52-1.35.81-2.08a37.14,37.14,0,0,0,1.82-5.46,35.4,35.4,0,0,0-2.26,5.3l-.78,2.1a1.59,1.59,0,0,0-.14,1.07.68.68,0,0,0,.45.4,1.73,1.73,0,0,0,.47.07A6.91,6.91,0,0,0,570.57,179.07Z" style="fill: rgb(38, 50, 56); transform-origin: 569.451px 174.628px 0px;" id="elzfvx0x7212" class="animable"></path><path d="M569.82,191.78A19.75,19.75,0,0,0,580.24,189s-2.52,5.34-10.31,4.62Z" style="fill: rgb(235, 153, 110); transform-origin: 575.03px 191.343px 0px;" id="el2vy0rlvhaob" class="animable"></path><path d="M571,181.66a2,2,0,0,1,1.74-.72,1.76,1.76,0,0,1,1.21.66,1.09,1.09,0,0,1,.09,1.27,1.29,1.29,0,0,1-1.41.36,3.94,3.94,0,0,1-1.37-.82,1.18,1.18,0,0,1-.31-.32.38.38,0,0,1,0-.4" style="fill: rgb(235, 153, 110); transform-origin: 572.548px 182.119px 0px;" id="el7zdh5chx5mi" class="animable"></path><path d="M573.73,179.81c-.18,0-.18,1.16-1.18,2s-2.24.7-2.25.86.28.23.81.24a2.91,2.91,0,0,0,1.87-.65,2.54,2.54,0,0,0,.91-1.67C573.94,180.1,573.81,179.81,573.73,179.81Z" style="fill: rgb(38, 50, 56); transform-origin: 572.1px 181.36px 0px;" id="el0540xorpk213" class="animable"></path><path d="M574.42,168.1c.1.29,1.18.16,2.44.31s2.27.49,2.44.23-.1-.4-.51-.68a4.21,4.21,0,0,0-1.82-.64,4,4,0,0,0-1.9.23C574.6,167.73,574.37,168,574.42,168.1Z" style="fill: rgb(38, 50, 56); transform-origin: 576.882px 168.013px 0px;" id="el7bcxfgnpfyk" class="animable"></path><path d="M564.3,167.8c.19.24.93,0,1.82,0s1.64.16,1.82-.09-.05-.37-.37-.6a2.64,2.64,0,0,0-2.93.09C564.32,167.43,564.22,167.68,564.3,167.8Z" style="fill: rgb(38, 50, 56); transform-origin: 566.138px 167.308px 0px;" id="elrmb2o5gcrma" class="animable"></path><path d="M590.22,167.29c-.55-4.71-2.77-9.46-6.82-11.94-3.54-2.18-7.17-2.67-10.69-.75a10.15,10.15,0,0,0-8.26,2.59,13.19,13.19,0,0,0-4,8.21,19,19,0,0,0,1.41,9.13l.6-7.88c4-1.72,8.46-5.11,10-9.23a16.47,16.47,0,0,0,11.79,11.49,13.48,13.48,0,0,0,4.63,12.49C589.86,176.76,590.77,172,590.22,167.29Z" style="fill: rgb(38, 50, 56); transform-origin: 575.378px 167.401px 0px;" id="elxas3obvmxuj" class="animable"></path><path d="M585.06,172c.61,3-.43,6.08-1.19,9.06s-1.22,6.33.38,9a4.68,4.68,0,0,1,1.08,2.38,8.62,8.62,0,0,1-.81,2.22,3.46,3.46,0,0,0,1.55,3.74,5.7,5.7,0,0,0,4.21.61,17.1,17.1,0,0,0,4-1.6l3.79-1.88a6.37,6.37,0,0,0,1.59-1,5.33,5.33,0,0,0,1.38-2.82,17.06,17.06,0,0,0-2-11.94c-2-3.6-1.12-9.57-4.61-11.78" style="fill: rgb(38, 50, 56); transform-origin: 592.272px 183.581px 0px;" id="elq8dhrt9o1jl" class="animable"></path><path d="M596.17,196.07a7.69,7.69,0,0,0,2-.8,6.55,6.55,0,0,0,3-4.85,8.19,8.19,0,0,0-.68-4,10,10,0,0,0-1.16-1.94c-.49-.62-1-1.2-1.64-1.81a17.64,17.64,0,0,1-1.71-2,5.78,5.78,0,0,1-1-2.6c-.23-1.92.49-3.81.18-5.64a3.52,3.52,0,0,0-1.38-2.24,8.56,8.56,0,0,0-2.43-1.18,17.77,17.77,0,0,1-4.87-2.17,32.78,32.78,0,0,1-6.66-6c-1.68-1.94-2.9-3.61-3.73-4.77-.41-.59-.72-1-.93-1.36a2.78,2.78,0,0,1-.29-.5s.15.14.38.44l1,1.3c.88,1.12,2.14,2.75,3.84,4.64a33.83,33.83,0,0,0,6.63,5.9,18.17,18.17,0,0,0,4.78,2.09,9,9,0,0,1,2.59,1.25,4,4,0,0,1,1.57,2.55c.32,2-.41,3.92-.18,5.68s1.45,3.12,2.59,4.32a23.87,23.87,0,0,1,1.65,1.86,9.92,9.92,0,0,1,1.19,2.05,8.27,8.27,0,0,1,.65,4.18,6.56,6.56,0,0,1-1.29,3.24,6.48,6.48,0,0,1-2,1.75,5.61,5.61,0,0,1-1.56.57A2.29,2.29,0,0,1,596.17,196.07Z" style="fill: rgb(69, 90, 100); transform-origin: 588.238px 175.141px 0px;" id="elozfrb3oolir" class="animable"></path><path d="M593.77,165.42a2.88,2.88,0,0,1-.82-.17,21.19,21.19,0,0,1-2.18-.73,33.62,33.62,0,0,1-12.47-8.47c-.65-.72-1.16-1.33-1.48-1.76s-.49-.69-.46-.71a30.22,30.22,0,0,1,2.21,2.21,40.09,40.09,0,0,0,12.34,8.39C592.67,165,593.8,165.34,593.77,165.42Z" style="fill: rgb(69, 90, 100); transform-origin: 585.064px 159.5px 0px;" id="elpnjnguip4en" class="animable"></path><path d="M566.42,153.4c0-.05.36-.48,1.14-1a6.53,6.53,0,0,1,3.52-1.22,4.58,4.58,0,0,1,2.06.43,3.85,3.85,0,0,1,1.34,1.09,2,2,0,0,1,.53,1.46,8.85,8.85,0,0,0-.82-1.22,4,4,0,0,0-3.1-1.24,7.32,7.32,0,0,0-3.34,1A6.93,6.93,0,0,1,566.42,153.4Z" style="fill: rgb(69, 90, 100); transform-origin: 570.716px 152.669px 0px;" id="elr559rdu8lm" class="animable"></path></g><g id="freepik--Plants--inject-196" style="transform-origin: 380.382px 384.053px 0px;" class="animable"><path d="M123.23,326.26s6.58.29,4.27,14.83-4.7,22.16-4.7,22.16-.18,3.27,2.4,2.92,7.68-2.95,9.73-.32.84,6.38-2.88,10.43-11.55,13.2-12.26,14-1.12,2.45.68,2.5,14.28-2.63,15.19,3.37-11.3,15.56-12.62,16.63-1.47,1.83-1.08,2.62,4.51-.51,8.09-1.13,7.84-.7,8.08,2.81-5.76,13-25.07,21.44l-9.2,3.33-7.62-6.21c-15.5-14.28-18.08-25.2-16.71-28.44s5.37-1.76,8.55,0,6.65,4.31,7.28,3.7.73-1.38-.17-2.82-9.33-14.47-6.51-19.84,13.75,1.22,15.47,1.76,1.84-1.14,1.45-2.14-4.82-12.22-7-17.26-2.23-8.91.67-10.79,6.77,2.3,9.1,3.47,3.22-2,3.22-2,.21-8,2.78-22.48,9-12.56,9-12.56" style="fill: #407BFF; transform-origin: 108.674px 384.003px 0px;" id="el2x42mdzm7pf" class="animable"></path><path d="M121.2,339.29l0,.27-.12.78c-.12.7-.28,1.71-.49,3-.45,2.62-1.08,6.37-1.86,11-1.53,9.31-3.65,22.13-6,36.29s-4.46,27-6.1,36.28l-2,11c-.25,1.27-.43,2.27-.57,3-.06.33-.11.58-.15.78a1.23,1.23,0,0,1-.07.26.93.93,0,0,1,0-.27l.12-.78c.11-.71.28-1.71.49-3,.44-2.62,1.08-6.37,1.86-11,1.56-9.29,3.67-22.12,6-36.3s4.46-27,6.1-36.27l2-11c.24-1.27.43-2.27.56-3,.07-.32.12-.58.16-.77A1.23,1.23,0,0,1,121.2,339.29Z" style="fill: rgb(38, 50, 56); transform-origin: 112.515px 390.62px 0px;" id="elivknwbwpmwg" class="animable"></path><path d="M128,369.78a17.81,17.81,0,0,1-2,1.75l-4.81,4.13c-1.88,1.62-3.6,3.07-4.87,4.08-.64.51-1.16.91-1.53,1.17a2.84,2.84,0,0,1-.61.38,22.38,22.38,0,0,1,2-1.75l4.79-4.17c1.88-1.61,3.61-3.05,4.89-4.05l1.54-1.16A3,3,0,0,1,128,369.78Z" style="fill: rgb(38, 50, 56); transform-origin: 121.09px 375.535px 0px;" id="elk9sms03rcn" class="animable"></path><path d="M113.34,380.9c-.08.06-3-3.54-6.51-8s-6.31-8.21-6.23-8.28,3,3.54,6.52,8.05S113.43,380.83,113.34,380.9Z" style="fill: rgb(38, 50, 56); transform-origin: 106.97px 372.76px 0px;" id="elb4zbv87m277" class="animable"></path><path d="M110.45,406.11a3,3,0,0,1-.64-.35c-.4-.23-1-.6-1.66-1.06-1.38-.92-3.26-2.24-5.25-3.81s-3.73-3.07-5-4.2c-.61-.56-1.1-1-1.42-1.36a3.18,3.18,0,0,1-.49-.54,22.46,22.46,0,0,1,2.09,1.7c1.26,1.07,3,2.54,5,4.1s3.84,2.92,5.17,3.89A20.64,20.64,0,0,1,110.45,406.11Z" style="fill: rgb(38, 50, 56); transform-origin: 103.22px 400.45px 0px;" id="el5xnyz15qsn6" class="animable"></path><path d="M125.88,399a15.57,15.57,0,0,1-2.21,1.14c-1.38.66-3.31,1.54-5.44,2.49s-4.08,1.8-5.49,2.4a16.84,16.84,0,0,1-2.32.89,15.57,15.57,0,0,1,2.21-1.14c1.38-.65,3.31-1.54,5.44-2.49s4.08-1.8,5.49-2.4A16.29,16.29,0,0,1,125.88,399Z" style="fill: rgb(38, 50, 56); transform-origin: 118.15px 402.46px 0px;" id="el2a8qdh4gftl" class="animable"></path><path d="M126.15,421.54a4,4,0,0,1-.75.41l-2.11,1c-1.79.82-4.27,1.92-7,3.12s-5.24,2.27-7.06,3l-2.15.87a4.26,4.26,0,0,1-.81.28,3.12,3.12,0,0,1,.75-.41l2.11-1c1.78-.81,4.26-1.92,7-3.12s5.25-2.26,7.06-3l2.16-.88A3.72,3.72,0,0,1,126.15,421.54Z" style="fill: rgb(38, 50, 56); transform-origin: 116.21px 425.88px 0px;" id="elnko4v2xh2s" class="animable"></path><path d="M106.66,429.88a5.3,5.3,0,0,1-.78-.49c-.48-.33-1.18-.82-2-1.44-1.7-1.25-4-3-6.48-5.07s-4.64-4-6.18-5.44c-.77-.72-1.38-1.32-1.79-1.74a4.74,4.74,0,0,1-.62-.67,3.59,3.59,0,0,1,.72.57c.5.43,1.13,1,1.87,1.64,1.58,1.39,3.77,3.3,6.24,5.35s4.75,3.85,6.4,5.15l2,1.53C106.43,429.64,106.68,429.85,106.66,429.88Z" style="fill: rgb(38, 50, 56); transform-origin: 97.7356px 422.455px 0px;" id="eldb784b9yrm5" class="animable"></path><path d="M658.21,378.2a11.94,11.94,0,0,1,6.17,7,21.05,21.05,0,0,1,.82,9.47c-.69,6.15-4.19,12.35-8,17.27-5.18-4.52-6.37-12.4-6.72-16.44-.56-6.38,2.31-18.25,7.68-17.3" style="fill: #407BFF; transform-origin: 657.911px 395.043px 0px;" id="ela8v6or3wzhe" class="animable"></path><path d="M663.27,422.08a10.18,10.18,0,0,1,3.28-9.66,13.51,13.51,0,0,1,10-3.11c1.65.13,3.42.61,4.37,2a4.37,4.37,0,0,1,.07,4.41,8.84,8.84,0,0,1-3.27,3.21c-4.48,2.82-9.34,4.72-14.41,3.19" style="fill: #407BFF; transform-origin: 672.312px 415.955px 0px;" id="el2d78xu3cuss" class="animable"></path><path d="M656.63,440.93a7.68,7.68,0,0,1,.18-1.26c.17-.89.38-2,.63-3.41A35.85,35.85,0,0,1,661,425.35a21.87,21.87,0,0,1,7.83-8.32,14.86,14.86,0,0,1,3.19-1.41,8.63,8.63,0,0,1,.92-.23,1,1,0,0,1,.33-.05,23.63,23.63,0,0,0-4.28,2,22.63,22.63,0,0,0-7.59,8.27,38.15,38.15,0,0,0-3.61,10.75c-.31,1.43-.57,2.59-.77,3.39A6.2,6.2,0,0,1,656.63,440.93Z" style="fill: rgb(38, 50, 56); transform-origin: 664.95px 428.135px 0px;" id="eldk2kaxl78rb" class="animable"></path><path d="M656.82,387.43a2.26,2.26,0,0,1,.07.56c0,.4.05.93.09,1.58.08,1.38.16,3.37.24,5.83.15,4.93.28,11.74.25,19.26s-.22,14.33-.42,19.25c-.1,2.47-.2,4.46-.29,5.83,0,.65-.08,1.18-.1,1.59a3.06,3.06,0,0,1-.07.55,2.39,2.39,0,0,1,0-.56c0-.41,0-.93,0-1.58,0-1.44.08-3.42.14-5.84.12-4.92.26-11.73.29-19.24s0-14.32-.12-19.25c0-2.42-.07-4.4-.09-5.83,0-.66,0-1.18,0-1.59A3.53,3.53,0,0,1,656.82,387.43Z" style="fill: rgb(38, 50, 56); transform-origin: 657.024px 414.655px 0px;" id="elbclmmi7mjer" class="animable"></path><path d="M654.31,425.83a23.78,23.78,0,0,0-13-17.42c-1.73-.83-4-1.37-5.41-.08s-1.11,3.6-.41,5.39a20.3,20.3,0,0,0,18.68,12.61" style="fill: #407BFF; transform-origin: 644.607px 416.944px 0px;" id="eljpesfqur8j" class="animable"></path><path d="M642.17,414.24a5.81,5.81,0,0,1,1.1.48,12.16,12.16,0,0,1,1.24.66c.46.29,1,.57,1.58,1a20.78,20.78,0,0,1,1.8,1.36,23.32,23.32,0,0,1,1.93,1.75,26.48,26.48,0,0,1,3.66,4.7,25.36,25.36,0,0,1,2.4,5.44,21.44,21.44,0,0,1,.61,2.53,18.29,18.29,0,0,1,.31,2.25,15.67,15.67,0,0,1,.09,1.86,12.09,12.09,0,0,1,0,1.41,5.27,5.27,0,0,1-.14,1.19c-.1,0,.08-1.71-.22-4.43a20.06,20.06,0,0,0-.36-2.2,23.9,23.9,0,0,0-.64-2.48,26.78,26.78,0,0,0-2.4-5.34,27.68,27.68,0,0,0-3.57-4.64,22.85,22.85,0,0,0-1.86-1.75,21.23,21.23,0,0,0-1.76-1.39C643.68,415,642.12,414.33,642.17,414.24Z" style="fill: rgb(38, 50, 56); transform-origin: 649.54px 426.555px 0px;" id="eljpyzk5yels" class="animable"></path></g><g id="freepik--image-upload--inject-196" style="transform-origin: 367.66px 232.82px 0px;" class="animable"><rect x="267.87" y="133.15" width="199.44" height="199.44" style="fill: rgb(245, 245, 245); transform-origin: 367.59px 232.87px 0px;" id="elm1nc4qmv48o" class="animable"></rect><path d="M467.3,332.59c0-1.92-.09-79.88-.22-199.44l.22.23-199.41,0h0l.26-.26c0,73,0,141.48,0,199.44l-.22-.23,199.43.23-199.43.22h-.23v-.22c0-58,0-126.41,0-199.44v-.26h.28l199.41,0h.23v.22C467.39,252.71,467.3,330.67,467.3,332.59Z" style="fill: rgb(38, 50, 56); transform-origin: 367.66px 232.82px 0px;" id="elxwacev1a1cb" class="animable"></path><path d="M449.42,320.7a35.22,35.22,0,0,1,6-.26l-.26.26h0v-1.19c0-.38,0-.75,0-1.12,0-.66,0-1.29.05-1.91a5.67,5.67,0,0,1,.19-1.76,6.34,6.34,0,0,1,.18,1.76c0,.62,0,1.25.06,1.91,0,.37,0,.74,0,1.12v1.19h0l-.26.26A34,34,0,0,1,449.42,320.7Z" style="fill: rgb(69, 90, 100); transform-origin: 452.53px 317.857px 0px;" id="el61mf93iej05" class="animable"></path><path d="M424.24,320.7a76.34,76.34,0,0,1,12.59,0,76.34,76.34,0,0,1-12.59,0Z" style="fill: rgb(69, 90, 100); transform-origin: 430.535px 320.7px 0px;" id="elcz8zl0oioge" class="animable"></path><path d="M399.06,320.7a76.34,76.34,0,0,1,12.59,0,76.34,76.34,0,0,1-12.59,0Z" style="fill: rgb(69, 90, 100); transform-origin: 405.355px 320.7px 0px;" id="elqo31820i1gr" class="animable"></path><path d="M373.88,320.7a76.34,76.34,0,0,1,12.59,0,76.34,76.34,0,0,1-12.59,0Z" style="fill: rgb(69, 90, 100); transform-origin: 380.175px 320.7px 0px;" id="elwyl2mles7cj" class="animable"></path><path d="M348.7,320.7a76.34,76.34,0,0,1,12.59,0,76.34,76.34,0,0,1-12.59,0Z" style="fill: rgb(69, 90, 100); transform-origin: 354.995px 320.7px 0px;" id="el4qymcv45vcb" class="animable"></path><path d="M323.52,320.7a76.34,76.34,0,0,1,12.59,0,76.34,76.34,0,0,1-12.59,0Z" style="fill: rgb(69, 90, 100); transform-origin: 329.815px 320.7px 0px;" id="elwbo4bm6m4z" class="animable"></path><path d="M298.34,320.7a38.87,38.87,0,0,1,6.3-.26,38.79,38.79,0,0,1,6.29.26,37.48,37.48,0,0,1-6.29.26A37.55,37.55,0,0,1,298.34,320.7Z" style="fill: rgb(69, 90, 100); transform-origin: 304.635px 320.702px 0px;" id="elezo7pc6ro4g" class="animable"></path><path d="M279.75,314.7a35.32,35.32,0,0,1,.26,6l-.26-.26h2.34l1.9.06a6.34,6.34,0,0,1,1.76.18,5.67,5.67,0,0,1-1.76.19l-1.9.05L281,321h-1.21l-.26-.26A35.32,35.32,0,0,1,279.75,314.7Z" style="fill: rgb(69, 90, 100); transform-origin: 282.619px 317.85px 0px;" id="elrzq8d8vrhmq" class="animable"></path><path d="M279.75,289.52a38.87,38.87,0,0,1,.26,6.3,38.69,38.69,0,0,1-.26,6.29,38.69,38.69,0,0,1-.26-6.29A38.87,38.87,0,0,1,279.75,289.52Z" style="fill: rgb(69, 90, 100); transform-origin: 279.75px 295.815px 0px;" id="elm1ho9dgc7bg" class="animable"></path><path d="M279.75,264.34a38.87,38.87,0,0,1,.26,6.3,38.69,38.69,0,0,1-.26,6.29,38.69,38.69,0,0,1-.26-6.29A38.87,38.87,0,0,1,279.75,264.34Z" style="fill: rgb(69, 90, 100); transform-origin: 279.75px 270.635px 0px;" id="el1ket33ehz31" class="animable"></path><path d="M279.75,239.17a38.69,38.69,0,0,1,.26,6.29,38.87,38.87,0,0,1-.26,6.3,38.87,38.87,0,0,1-.26-6.3A38.69,38.69,0,0,1,279.75,239.17Z" style="fill: rgb(69, 90, 100); transform-origin: 279.75px 245.465px 0px;" id="elee2f0nnb5fw" class="animable"></path><path d="M279.75,214a38.69,38.69,0,0,1,.26,6.29,38.87,38.87,0,0,1-.26,6.3,38.87,38.87,0,0,1-.26-6.3A38.69,38.69,0,0,1,279.75,214Z" style="fill: rgb(69, 90, 100); transform-origin: 279.75px 220.295px 0px;" id="eljcnciitkk1d" class="animable"></path><path d="M279.75,188.81a38.79,38.79,0,0,1,.26,6.29,38.87,38.87,0,0,1-.26,6.3,38.87,38.87,0,0,1-.26-6.3A38.79,38.79,0,0,1,279.75,188.81Z" style="fill: rgb(69, 90, 100); transform-origin: 279.75px 195.105px 0px;" id="elcmt831hhp2h" class="animable"></path><path d="M279.75,163.63a38.79,38.79,0,0,1,.26,6.29,38.87,38.87,0,0,1-.26,6.3,38.87,38.87,0,0,1-.26-6.3A38.79,38.79,0,0,1,279.75,163.63Z" style="fill: rgb(69, 90, 100); transform-origin: 279.75px 169.925px 0px;" id="elsxzdutsdj19" class="animable"></path><path d="M285.75,145a35.32,35.32,0,0,1-6,.26L280,145h0v1.19c0,.38,0,.75,0,1.12,0,.66,0,1.29-.05,1.91a6.07,6.07,0,0,1-.19,1.76,5.9,5.9,0,0,1-.18-1.76c0-.62,0-1.25-.06-1.91,0-.37,0-.74,0-1.12,0-.2,0-.4,0-.6v-.59h0l.26-.26A34.12,34.12,0,0,1,285.75,145Z" style="fill: rgb(69, 90, 100); transform-origin: 282.635px 147.843px 0px;" id="elubdu2boyw4b" class="animable"></path><path d="M310.93,145a38.79,38.79,0,0,1-6.29.26,38.87,38.87,0,0,1-6.3-.26,37.55,37.55,0,0,1,6.3-.26A37.48,37.48,0,0,1,310.93,145Z" style="fill: rgb(69, 90, 100); transform-origin: 304.635px 144.998px 0px;" id="eluh5xlkcw0wk" class="animable"></path><path d="M336.11,145a76.34,76.34,0,0,1-12.59,0,76.34,76.34,0,0,1,12.59,0Z" style="fill: rgb(69, 90, 100); transform-origin: 329.815px 145px 0px;" id="els2s14p9rt5q" class="animable"></path><path d="M361.29,145a76.34,76.34,0,0,1-12.59,0,76.34,76.34,0,0,1,12.59,0Z" style="fill: rgb(69, 90, 100); transform-origin: 354.995px 145px 0px;" id="elaa8f2483mtw" class="animable"></path><path d="M386.47,145a76.34,76.34,0,0,1-12.59,0,76.34,76.34,0,0,1,12.59,0Z" style="fill: rgb(69, 90, 100); transform-origin: 380.175px 145px 0px;" id="elrvm56hp9fks" class="animable"></path><path d="M411.65,145a76.34,76.34,0,0,1-12.59,0,76.34,76.34,0,0,1,12.59,0Z" style="fill: rgb(69, 90, 100); transform-origin: 405.355px 145px 0px;" id="el2juzb5svd8a" class="animable"></path><path d="M436.83,145a76.34,76.34,0,0,1-12.59,0,76.34,76.34,0,0,1,12.59,0Z" style="fill: rgb(69, 90, 100); transform-origin: 430.535px 145px 0px;" id="elglx89nwawnn" class="animable"></path><path d="M455.42,151a34.12,34.12,0,0,1-.26-6c.52.52.14.14.25.26h-2.33l-1.91-.06a6.3,6.3,0,0,1-1.75-.18,6,6,0,0,1,1.75-.19l1.91,0,1.13,0h1.2c.12.11-.25-.26.27.26A35.32,35.32,0,0,1,455.42,151Z" style="fill: rgb(69, 90, 100); transform-origin: 452.564px 147.902px 0px;" id="elkd5bhlmwa4" class="animable"></path><path d="M455.42,176.22a37.55,37.55,0,0,1-.26-6.3,37.48,37.48,0,0,1,.26-6.29,38.79,38.79,0,0,1,.26,6.29A38.87,38.87,0,0,1,455.42,176.22Z" style="fill: rgb(69, 90, 100); transform-origin: 455.418px 169.925px 0px;" id="elwevhtttofof" class="animable"></path><path d="M455.42,201.4a37.55,37.55,0,0,1-.26-6.3,37.38,37.38,0,0,1,.26-6.29,38.69,38.69,0,0,1,.26,6.29A38.87,38.87,0,0,1,455.42,201.4Z" style="fill: rgb(69, 90, 100); transform-origin: 455.418px 195.105px 0px;" id="elgxxxtv81aqr" class="animable"></path><path d="M455.42,226.58a37.55,37.55,0,0,1-.26-6.3,37.38,37.38,0,0,1,.26-6.29,38.69,38.69,0,0,1,.26,6.29A38.87,38.87,0,0,1,455.42,226.58Z" style="fill: rgb(69, 90, 100); transform-origin: 455.418px 220.285px 0px;" id="elotn6z0d0hjf" class="animable"></path><path d="M455.42,251.76a37.55,37.55,0,0,1-.26-6.3,37.38,37.38,0,0,1,.26-6.29,38.69,38.69,0,0,1,.26,6.29A38.87,38.87,0,0,1,455.42,251.76Z" style="fill: rgb(69, 90, 100); transform-origin: 455.418px 245.465px 0px;" id="elf23i10ari47" class="animable"></path><path d="M455.42,276.93a37.38,37.38,0,0,1-.26-6.29,37.55,37.55,0,0,1,.26-6.3,38.87,38.87,0,0,1,.26,6.3A38.69,38.69,0,0,1,455.42,276.93Z" style="fill: rgb(69, 90, 100); transform-origin: 455.418px 270.635px 0px;" id="el73d14vx9ldc" class="animable"></path><path d="M455.42,302.11a37.38,37.38,0,0,1-.26-6.29,37.55,37.55,0,0,1,.26-6.3,38.87,38.87,0,0,1,.26,6.3A38.69,38.69,0,0,1,455.42,302.11Z" style="fill: rgb(69, 90, 100); transform-origin: 455.418px 295.815px 0px;" id="elnvob88tfoum" class="animable"></path><path d="M359,199.05a4.11,4.11,0,0,1-1-.13,5.2,5.2,0,0,1-2.57-1.46,5.38,5.38,0,0,1-1.6-4.34,4.71,4.71,0,0,1,1.27-2.68,4.35,4.35,0,0,1,3-1.42l-.2.2A6.61,6.61,0,0,1,359,185a3.86,3.86,0,0,1,2-1.33,5.58,5.58,0,0,1,2.54,0l-.28.26a5.84,5.84,0,0,1,2-5,6.79,6.79,0,0,1,2.59-1.36l.72-.2.74-.12a8.37,8.37,0,0,1,1.5-.14,10.39,10.39,0,0,1,6,1.29,6.83,6.83,0,0,1,2.2,2.42,8.53,8.53,0,0,1,.92,3.17,7.8,7.8,0,0,1,0,1.45l-.27-.29a8.57,8.57,0,0,1,5.58,1.57,10.4,10.4,0,0,1,3.29,4.51,5.49,5.49,0,0,1,.51,2.68,5.43,5.43,0,0,1-.87,2.53,5.91,5.91,0,0,1-4.22,2.6h0l-18.06.17h-6.41l-.46,0a2.1,2.1,0,0,1,.46,0l1.34-.06,5.08-.14,18-.36h0a5.43,5.43,0,0,0,3.86-2.41,4.76,4.76,0,0,0,.3-4.75A9.9,9.9,0,0,0,385,187a8.14,8.14,0,0,0-5.25-1.46l-.3,0,0-.3a7.64,7.64,0,0,0,0-1.35,6.8,6.8,0,0,0-2.88-5.2,9.94,9.94,0,0,0-5.74-1.23,8.52,8.52,0,0,0-5.25,1.69,5.35,5.35,0,0,0-1.82,4.61l0,.32-.31-.07a4.08,4.08,0,0,0-4.15,1.17,6.2,6.2,0,0,0-1,4v.19h-.2a4,4,0,0,0-2.75,1.28,4.35,4.35,0,0,0-1.22,2.48,5.42,5.42,0,0,0,3.9,5.65C358.67,199,359,199,359,199.05Z" style="fill: rgb(38, 50, 56); transform-origin: 371.429px 188.14px 0px;" id="elqhx84u0eefn" class="animable"></path><path d="M375.92,193a45.77,45.77,0,0,1-4.73-4.9h.38l-.09.1a46.89,46.89,0,0,1-5,4.79,45.32,45.32,0,0,1,4.65-5.15l.1-.1.19-.2.19.21A45.24,45.24,0,0,1,375.92,193Z" style="fill: rgb(38, 50, 56); transform-origin: 371.2px 190.27px 0px;" id="elyalg55hoq7b" class="animable"></path><path d="M371.38,204.7a68.58,68.58,0,0,1-.26-8.38,68.58,68.58,0,0,1,.26-8.38,66.25,66.25,0,0,1,.26,8.38A66.25,66.25,0,0,1,371.38,204.7Z" style="fill: rgb(38, 50, 56); transform-origin: 371.382px 196.32px 0px;" id="elhk0a3jj78gp" class="animable"></path><path d="M329.63,222.28h-4.58l-.95,2.16h-1.27l3.91-8.62H328l3.92,8.62h-1.29Zm-.43-1-1.86-4.22-1.86,4.22Z" style="fill: rgb(38, 50, 56); transform-origin: 327.375px 220.13px 0px;" id="el1nq57syeaik" class="animable"></path><path d="M339.07,215.3v9.14h-1.13v-1a2.78,2.78,0,0,1-2.33,1.1,3.33,3.33,0,0,1,0-6.66,2.78,2.78,0,0,1,2.28,1.05v-3.6Zm-1.17,5.88a2.2,2.2,0,1,0-2.19,2.3A2.14,2.14,0,0,0,337.9,221.18Z" style="fill: rgb(38, 50, 56); transform-origin: 335.675px 219.921px 0px;" id="el6ije3ydskf3" class="animable"></path><path d="M347.47,215.3v9.14h-1.13v-1a2.78,2.78,0,0,1-2.33,1.1,3.33,3.33,0,0,1,0-6.66,2.8,2.8,0,0,1,2.28,1.05v-3.6Zm-1.17,5.88a2.2,2.2,0,1,0-2.19,2.3A2.14,2.14,0,0,0,346.3,221.18Z" style="fill: rgb(38, 50, 56); transform-origin: 344.075px 219.921px 0px;" id="elkkrf4rpnnm" class="animable"></path><path d="M352.81,215.89a.77.77,0,0,1,.8-.77.76.76,0,0,1,.8.75.8.8,0,0,1-1.6,0Zm.21,2h1.18v6.53H353Z" style="fill: rgb(38, 50, 56); transform-origin: 353.61px 219.769px 0px;" id="elvlu2v5mjye" class="animable"></path><path d="M360.12,224.06a2.18,2.18,0,0,1-1.42.45,1.86,1.86,0,0,1-2.07-2v-3.58h-1.11v-1h1.11v-1.43h1.18v1.43h1.87v1h-1.87v3.53a1,1,0,0,0,1,1.1,1.49,1.49,0,0,0,.93-.31Z" style="fill: rgb(38, 50, 56); transform-origin: 357.82px 220.511px 0px;" id="ellrbxaw4zq6" class="animable"></path><path d="M367.2,221.57h-5.29a2.21,2.21,0,0,0,2.36,1.91,2.44,2.44,0,0,0,1.89-.79l.65.76a3.55,3.55,0,0,1-6.08-2.27,3.19,3.19,0,0,1,3.27-3.33,3.15,3.15,0,0,1,3.23,3.36A2.28,2.28,0,0,1,367.2,221.57Zm-5.29-.85h4.19a2.11,2.11,0,0,0-4.19,0Z" style="fill: rgb(38, 50, 56); transform-origin: 363.982px 221.183px 0px;" id="el9xydzjvqe2v" class="animable"></path><path d="M379.7,220.68v3.76h-1.18v-3.62c0-1.28-.62-1.91-1.69-1.91a1.9,1.9,0,0,0-2,2.17v3.36h-1.18v-3.62c0-1.28-.61-1.91-1.69-1.91s-1.95.75-1.95,2.17v3.36h-1.19v-6.53H370v1a2.63,2.63,0,0,1,2.25-1,2.43,2.43,0,0,1,2.27,1.21,2.93,2.93,0,0,1,2.51-1.21A2.5,2.5,0,0,1,379.7,220.68Z" style="fill: rgb(38, 50, 56); transform-origin: 374.268px 221.172px 0px;" id="el8w2sdryzgsd" class="animable"></path><path d="M385,215.89a.77.77,0,0,1,.8-.77.76.76,0,0,1,.8.75.8.8,0,0,1-1.6,0Zm.21,2h1.18v6.53h-1.18Z" style="fill: rgb(38, 50, 56); transform-origin: 385.8px 219.769px 0px;" id="el7cyvylmzixk" class="animable"></path><path d="M399.46,220.68v3.76h-1.18v-3.62c0-1.28-.62-1.91-1.69-1.91a1.9,1.9,0,0,0-2,2.17v3.36h-1.18v-3.62c0-1.28-.61-1.91-1.69-1.91s-1.95.75-1.95,2.17v3.36h-1.19v-6.53h1.14v1a2.64,2.64,0,0,1,2.25-1,2.43,2.43,0,0,1,2.27,1.21,2.93,2.93,0,0,1,2.51-1.21A2.5,2.5,0,0,1,399.46,220.68Z" style="fill: rgb(38, 50, 56); transform-origin: 394.028px 221.17px 0px;" id="el3jlvhe8kiny" class="animable"></path><path d="M406.81,220.5v3.94h-1.12v-.86a2.43,2.43,0,0,1-2.14.93c-1.48,0-2.42-.79-2.42-1.92s.68-1.91,2.63-1.91h1.87v-.23c0-1-.58-1.58-1.75-1.58a3.26,3.26,0,0,0-2.07.71l-.49-.89a4.34,4.34,0,0,1,2.69-.84C405.8,217.85,406.81,218.71,406.81,220.5Zm-1.18,1.94v-.91H403.8c-1.16,0-1.5.46-1.5,1s.54,1.06,1.44,1.06A1.89,1.89,0,0,0,405.63,222.44Z" style="fill: rgb(38, 50, 56); transform-origin: 403.97px 221.184px 0px;" id="elnqf7uh49jyo" class="animable"></path><path d="M415.28,217.91v5.64c0,2.31-1.17,3.35-3.39,3.35a4.82,4.82,0,0,1-3.11-1l.56-.91a4.06,4.06,0,0,0,2.52.85c1.54,0,2.24-.72,2.24-2.19v-.52a3,3,0,0,1-2.35,1,3.16,3.16,0,1,1,0-6.32,3,3,0,0,1,2.41,1.07v-1ZM414.12,221a2.25,2.25,0,1,0-2.24,2.13A2.08,2.08,0,0,0,414.12,221Z" style="fill: rgb(38, 50, 56); transform-origin: 411.935px 222.355px 0px;" id="eld6qh04l326" class="animable"></path><path d="M423.4,221.57h-5.29a2.21,2.21,0,0,0,2.36,1.91,2.44,2.44,0,0,0,1.89-.79l.65.76a3.55,3.55,0,0,1-6.08-2.27,3.19,3.19,0,0,1,3.27-3.33,3.15,3.15,0,0,1,3.23,3.36A2.28,2.28,0,0,1,423.4,221.57Zm-5.29-.85h4.19a2.11,2.11,0,0,0-4.19,0Z" style="fill: rgb(38, 50, 56); transform-origin: 420.182px 221.183px 0px;" id="el9osdt81fcoa" class="animable"></path><path d="M367.86,270.08H311.51a3.53,3.53,0,0,1-3.52-3.52h0a3.53,3.53,0,0,1,3.52-3.52h56.35a3.52,3.52,0,0,1,3.52,3.52h0A3.52,3.52,0,0,1,367.86,270.08Z" style="fill: #407BFF; transform-origin: 339.685px 266.56px 0px;" id="el2f6vq98he2p" class="animable"></path><path d="M354.85,278v3.74h-.65v-.56a1.5,1.5,0,0,1-1.27.6,1.46,1.46,0,0,1-1.61-1.63V278H352v2.08c0,.73.37,1.1,1,1.1a1.1,1.1,0,0,0,1.16-1.25V278Z" style="fill: rgb(38, 50, 56); transform-origin: 353.08px 279.894px 0px;" id="elxshnj3oi1ao" class="animable"></path><path d="M360,279.86a1.82,1.82,0,0,1-1.89,1.91,1.6,1.6,0,0,1-1.31-.6v1.93h-.68V278h.65v.59a1.63,1.63,0,0,1,1.34-.63A1.82,1.82,0,0,1,360,279.86Zm-.68,0a1.27,1.27,0,1,0-1.27,1.32A1.24,1.24,0,0,0,359.34,279.86Z" style="fill: rgb(38, 50, 56); transform-origin: 358.061px 280.529px 0px;" id="elreu0e9xqmpg" class="animable"></path><path d="M361,276.49h.68v5.24H361Z" style="fill: rgb(38, 50, 56); transform-origin: 361.34px 279.11px 0px;" id="elk599t6mqn" class="animable"></path><path d="M362.59,279.86a1.95,1.95,0,1,1,2,1.91A1.86,1.86,0,0,1,362.59,279.86Zm3.21,0a1.27,1.27,0,1,0-2.53,0,1.27,1.27,0,1,0,2.53,0Z" style="fill: rgb(38, 50, 56); transform-origin: 364.539px 279.823px 0px;" id="elcp6jlrigtl" class="animable"></path><path d="M370.36,279.47v2.26h-.65v-.49a1.37,1.37,0,0,1-1.23.53c-.84,0-1.38-.45-1.38-1.1s.39-1.09,1.5-1.09h1.08v-.14c0-.57-.33-.9-1-.9a1.88,1.88,0,0,0-1.19.4l-.28-.51a2.46,2.46,0,0,1,1.54-.48C369.78,278,370.36,278.45,370.36,279.47Zm-.68,1.12v-.52h-1.05c-.67,0-.86.26-.86.57s.31.61.83.61A1.08,1.08,0,0,0,369.68,280.59Z" style="fill: rgb(38, 50, 56); transform-origin: 368.73px 279.863px 0px;" id="el4ybupnpoyd7" class="animable"></path><path d="M375.17,276.49v5.24h-.65v-.59a1.57,1.57,0,0,1-1.33.63,1.91,1.91,0,0,1,0-3.82,1.59,1.59,0,0,1,1.3.6v-2.06Zm-.67,3.37a1.26,1.26,0,1,0-1.26,1.32A1.23,1.23,0,0,0,374.5,279.86Z" style="fill: rgb(38, 50, 56); transform-origin: 373.225px 279.131px 0px;" id="elau9y29i4xua" class="animable"></path><path d="M376.34,276.83a.46.46,0,1,1,.46.44A.44.44,0,0,1,376.34,276.83Zm.12,1.16h.68v3.74h-.68Z" style="fill: rgb(38, 50, 56); transform-origin: 376.8px 279.04px 0px;" id="elg14a653j4c" class="animable"></path><path d="M382,279.58v2.15h-.68v-2.07c0-.74-.37-1.1-1-1.1a1.11,1.11,0,0,0-1.19,1.24v1.93h-.68V278h.65v.56a1.62,1.62,0,0,1,1.35-.6A1.46,1.46,0,0,1,382,279.58Z" style="fill: rgb(38, 50, 56); transform-origin: 380.23px 279.843px 0px;" id="el3701tleoiz7" class="animable"></path><path d="M386.85,278v3.23a1.7,1.7,0,0,1-1.94,1.93,2.76,2.76,0,0,1-1.79-.56l.32-.53a2.28,2.28,0,0,0,1.45.49c.88,0,1.28-.41,1.28-1.26V281a1.7,1.7,0,0,1-1.35.58,1.82,1.82,0,1,1,0-3.63,1.72,1.72,0,0,1,1.39.62V278Zm-.66,1.77A1.29,1.29,0,1,0,384.9,281,1.21,1.21,0,0,0,386.19,279.76Z" style="fill: rgb(38, 50, 56); transform-origin: 384.867px 280.562px 0px;" id="eliabm4f2ph" class="animable"></path><path d="M387.83,281.29a.47.47,0,0,1,.48-.48.48.48,0,0,1,0,1A.47.47,0,0,1,387.83,281.29Z" style="fill: rgb(38, 50, 56); transform-origin: 388.319px 281.31px 0px;" id="elwomqeprebpm" class="animable"></path><path d="M389.43,281.29a.47.47,0,0,1,.48-.48.48.48,0,0,1,0,1A.47.47,0,0,1,389.43,281.29Z" style="fill: rgb(38, 50, 56); transform-origin: 389.919px 281.31px 0px;" id="eljh8wwpbrwwo" class="animable"></path><path d="M391,281.29a.47.47,0,0,1,.48-.48.48.48,0,0,1,0,1A.47.47,0,0,1,391,281.29Z" style="fill: rgb(38, 50, 56); transform-origin: 391.489px 281.31px 0px;" id="el8292188ngu" class="animable"></path><path d="M367.08,256c0,1.18-.85,2.14-2.61,2.14a3.94,3.94,0,0,1-2.52-.84l.45-.77a3.1,3.1,0,0,0,2.06.73c1,0,1.63-.48,1.63-1.23s-.49-1.25-2.08-1.25h-1.56l.36-3.6h3.88V252h-3.05l-.19,1.89h.77C366.27,253.87,367.08,254.73,367.08,256Z" style="fill: #407BFF; transform-origin: 364.515px 254.661px 0px;" id="el20dzza78nuc" class="animable"></path><path d="M367.89,254.57c0-2.24,1.2-3.52,2.81-3.52s2.8,1.28,2.8,3.52-1.2,3.52-2.8,3.52S367.89,256.81,367.89,254.57Zm4.63,0c0-1.76-.75-2.64-1.82-2.64s-1.83.88-1.83,2.64.75,2.64,1.83,2.64S372.52,256.33,372.52,254.57Z" style="fill: #407BFF; transform-origin: 370.695px 254.57px 0px;" id="el4ltinf8e5f8" class="animable"></path><path d="M374.34,253a1.66,1.66,0,0,1,1.6-1.88c.95,0,1.59.75,1.59,1.88s-.64,1.87-1.59,1.87A1.65,1.65,0,0,1,374.34,253Zm2.56,0c0-.83-.36-1.32-1-1.32s-1,.5-1,1.32.38,1.31,1,1.31S376.9,253.77,376.9,253Zm3.18-1.82h.76l-4.7,6.88h-.75Zm-1.38,5.06a1.62,1.62,0,1,1,1.59,1.88A1.66,1.66,0,0,1,378.7,256.19Zm2.55,0c0-.81-.37-1.32-1-1.32s-1,.5-1,1.32.36,1.32,1,1.32S381.25,257,381.25,256.19Z" style="fill: #407BFF; transform-origin: 378.122px 254.62px 0px;" id="eleycytqmlqz7" class="animable"></path><path d="M426.57,270.08s.22,0,.64-.09a3.48,3.48,0,0,0,2.79-3.58,3.41,3.41,0,0,0-2.36-3.09,8.28,8.28,0,0,0-2.48-.17l-2.79,0-6.34,0-15.43,0-89.38.07a3.28,3.28,0,0,0-2.61,1.3,3.26,3.26,0,0,0,1.4,5,3.61,3.61,0,0,0,1.47.23h37.88l40.19.06,27.09.08,7.36,0,1.92,0,.65,0-.65,0-1.92,0-7.36.05-27.09.08-40.19.06-23.73,0H311.48a4.24,4.24,0,0,1-1.67-.27,3.78,3.78,0,0,1,1.41-7.29l89.38.08,15.43,0,6.34,0h2.79a8.89,8.89,0,0,1,2.54.19,3.63,3.63,0,0,1,2.46,3.28,3.58,3.58,0,0,1-1.21,2.82,3.4,3.4,0,0,1-1.73.82A2.46,2.46,0,0,1,426.57,270.08Z" style="fill: rgb(38, 50, 56); transform-origin: 368.798px 266.302px 0px;" id="elkfxntrowegk" class="animable"></path></g><defs>     <filter id="active" height="200%">         <feMorphology in="SourceAlpha" result="DILATED" operator="dilate" radius="2"></feMorphology>                <feFlood flood-color="#32DFEC" flood-opacity="1" result="PINK"></feFlood>        <feComposite in="PINK" in2="DILATED" operator="in" result="OUTLINE"></feComposite>        <feMerge>            <feMergeNode in="OUTLINE"></feMergeNode>            <feMergeNode in="SourceGraphic"></feMergeNode>        </feMerge>    </filter>    <filter id="hover" height="200%">        <feMorphology in="SourceAlpha" result="DILATED" operator="dilate" radius="2"></feMorphology>                <feFlood flood-color="#ff0000" flood-opacity="0.5" result="PINK"></feFlood>        <feComposite in="PINK" in2="DILATED" operator="in" result="OUTLINE"></feComposite>        <feMerge>            <feMergeNode in="OUTLINE"></feMergeNode>            <feMergeNode in="SourceGraphic"></feMergeNode>        </feMerge>            <feColorMatrix type="matrix" values="0   0   0   0   0                0   1   0   0   0                0   0   0   0   0                0   0   0   1   0 "></feColorMatrix>    </filter></defs></svg>